<?xml version="1.0" encoding="UTF-8"?>
<svg display="block" version="1.1" viewBox="0 0 2000 2220" xmlns="http://www.w3.org/2000/svg">
<g fill-rule="evenodd">
<path d="m217.6 154.08c0 0.175 0.143 0.317 0.317 0.317s0.281-0.107 0.237-0.237c-0.123-0.371-0.554-0.433-0.554-0.08m-31.072 56.017c-0.07 0.183-1e-3 0.3 0.178 0.3 0.162 0 0.294-0.135 0.294-0.3s-0.08-0.3-0.179-0.3c-0.098 0-0.23 0.135-0.293 0.3m211.88 33.8c-4e-3 0.297 0.353 0.805 0.478 0.68 0.06-0.06-0.022-0.283-0.183-0.495-0.16-0.212-0.293-0.295-0.295-0.185m-170.77 32.913c0.048 0.144 0.205 0.301 0.35 0.35 0.15 0.05 0.225-0.026 0.175-0.175-0.049-0.145-0.206-0.302-0.35-0.351-0.15-0.049-0.225 0.026-0.175 0.176m146.76 59.08c0 0.161-0.188 0.393-0.417 0.516-0.23 0.123-0.364 0.276-0.299 0.341 0.134 0.134 1.116-0.732 1.116-0.985 0-0.091-0.09-0.165-0.2-0.165s-0.2 0.132-0.2 0.293m-235.6 37.319c0 0.116-0.084 0.16-0.186 0.097-0.103-0.064-0.238-0.032-0.301 0.07-0.162 0.263 0.442 0.146 0.729-0.141 0.184-0.184 0.184-0.238-2e-3 -0.238-0.132 0-0.24 0.095-0.24 0.212m-24.954 58.626c0.123 0.37 0.554 0.432 0.554 0.079 0-0.174-0.142-0.317-0.317-0.317-0.174 0-0.281 0.107-0.237 0.238"/>
<path d="m72.446 8.037c0.043 0.131 0.186 0.274 0.317 0.317 0.146 0.049 0.19-0.043 0.116-0.237-0.14-0.364-0.553-0.439-0.433-0.08m-64.008 65.176c0.048 0.144 0.205 0.301 0.349 0.35 0.151 0.049 0.226-0.025 0.176-0.175-0.049-0.145-0.206-0.302-0.35-0.35-0.15-0.051-0.225 0.025-0.175 0.175m35.49 18.032c0.055 0.089 0.183 0.11 0.286 0.046 0.102-0.063 0.186-0.019 0.186 0.097 0 0.117 0.095 0.212 0.212 0.212 0.116 0 0.161-0.082 0.099-0.183-0.063-0.101 0-0.23 0.138-0.288 0.138-0.057-0.035-0.091-0.385-0.075s-0.591 0.102-0.536 0.191m272.47 2.75c-0.169 0.318-0.154 0.374 0.078 0.285 0.336-0.129 0.596-0.68 0.321-0.68-0.103 0-0.282 0.178-0.399 0.395m-55.281 3.888c0.067 0.174 0.21 0.317 0.317 0.317 0.263 0 0.098-0.455-0.201-0.554-0.146-0.049-0.19 0.043-0.116 0.237m-134.68 29.33c0.048 0.144 0.205 0.301 0.35 0.35 0.15 0.05 0.225-0.025 0.175-0.175-0.049-0.145-0.206-0.302-0.35-0.35-0.15-0.05-0.225 0.025-0.175 0.175m28.683 20.67c0.067 0.174 0.21 0.317 0.317 0.317 0.263 0 0.098-0.455-0.201-0.554-0.146-0.049-0.19 0.043-0.116 0.237m57.325 2.154c0.043 0.131 0.186 0.274 0.317 0.317 0.146 0.049 0.19-0.043 0.116-0.237-0.14-0.364-0.553-0.439-0.433-0.08m16.592 12.576c0.048 0.144 0.205 0.301 0.35 0.35 0.15 0.05 0.225-0.025 0.175-0.175-0.049-0.145-0.206-0.302-0.35-0.35-0.15-0.05-0.225 0.025-0.175 0.175m-45.238 5.949c0 0.107 0.143 0.25 0.317 0.317 0.194 0.074 0.286 0.03 0.237-0.116-0.099-0.299-0.554-0.464-0.554-0.201m169.24 6.051c0.048 0.144 0.205 0.301 0.35 0.35 0.15 0.05 0.225-0.025 0.175-0.175-0.049-0.145-0.206-0.302-0.35-0.35-0.15-0.05-0.225 0.025-0.175 0.175m-151.72 15.301c-0.362 0.363-0.393 0.486-0.121 0.486 0.106 0 0.289-0.18 0.407-0.4 0.257-0.48 0.143-0.515-0.286-0.086m172.29 3.285c0 0.103 0.178 0.282 0.395 0.399 0.318 0.169 0.374 0.154 0.285-0.078-0.129-0.336-0.68-0.596-0.68-0.321m-128.61 30.216c-0.203 0.38-0.187 0.396 0.193 0.193 0.228-0.122 0.415-0.309 0.415-0.415 0-0.343-0.38-0.205-0.608 0.222m86.322 78.499c-0.362 0.363-0.393 0.486-0.121 0.486 0.106 0 0.289-0.18 0.407-0.4 0.257-0.48 0.143-0.515-0.286-0.086m-54.971 22.145c-0.057 0.15 0.056 0.271 0.268 0.287 0.241 0.018 0.329-0.07 0.256-0.259-0.137-0.357-0.392-0.371-0.524-0.028m-88.143 16.277c-0.443 0.469-0.452 0.503-0.074 0.302 0.235-0.125 0.48-0.364 0.544-0.532 0.157-0.409 0.114-0.388-0.47 0.23m-14 14c-0.443 0.469-0.452 0.503-0.074 0.302 0.235-0.125 0.48-0.364 0.544-0.532 0.157-0.409 0.114-0.388-0.47 0.23m-2 2c-0.443 0.469-0.452 0.503-0.074 0.302 0.235-0.125 0.48-0.364 0.544-0.532 0.157-0.409 0.114-0.388-0.47 0.23m-2 2c-0.443 0.469-0.452 0.503-0.074 0.302 0.235-0.125 0.48-0.364 0.544-0.532 0.157-0.409 0.114-0.388-0.47 0.23m-2 2c-0.443 0.469-0.452 0.503-0.074 0.302 0.235-0.125 0.48-0.364 0.544-0.532 0.157-0.409 0.114-0.388-0.47 0.23m-2 2c-0.443 0.469-0.452 0.503-0.074 0.302 0.235-0.125 0.48-0.364 0.544-0.532 0.157-0.409 0.114-0.388-0.47 0.23m-25.742 10.812c0.747 0.039 1.917 0.039 2.6 0s0.072-0.071-1.358-0.07c-1.43 0-1.989 0.032-1.242 0.07m-34.786 35.852c0 1.045 0.034 1.473 0.075 0.95 0.041-0.522 0.041-1.378 0-1.9s-0.075-0.095-0.075 0.95m48.061 33.533c-0.243 0.243-0.138 0.456 0.167 0.339 0.165-0.063 0.3-0.195 0.3-0.293 0-0.21-0.276-0.237-0.467-0.046" fill="#f00"/>
<path d="m36.6 0.2c0 0.114-0.6 0.2-1.4 0.2-1.111 0-1.4 0.062-1.4 0.3 0 0.227-0.244 0.3-1 0.3s-1 0.073-1 0.3c0 0.213-0.233 0.307-0.8 0.325-0.44 0.014-0.89 0.048-1 0.075-0.11 0.028-0.335 0.061-0.5 0.075s-0.3 0.16-0.3 0.325c0 0.208-0.209 0.3-0.679 0.3-0.418 0-0.722 0.115-0.793 0.3-0.068 0.175-0.367 0.3-0.722 0.3-0.379 0-0.606 0.102-0.606 0.274 0 0.17-0.316 0.316-0.834 0.385-0.459 0.062-0.913 0.254-1.01 0.427-0.097 0.172-0.342 0.314-0.545 0.314-0.202 0-0.42 0.135-0.483 0.3-0.064 0.165-0.343 0.3-0.622 0.3-0.298 0-0.506 0.114-0.506 0.278 0 0.159-0.299 0.334-0.7 0.409-0.385 0.072-0.7 0.24-0.7 0.373s-0.45 0.449-1 0.701-1 0.544-1 0.649c0 0.104-0.138 0.19-0.306 0.19-0.169 0-0.355 0.127-0.415 0.282-0.059 0.155-0.371 0.391-0.693 0.524s-0.586 0.322-0.586 0.418c0 0.097-0.135 0.176-0.3 0.176s-0.3 0.135-0.3 0.3-0.143 0.3-0.319 0.3c-0.175 0-0.366 0.18-0.423 0.4-0.058 0.22-0.229 0.4-0.381 0.4s-0.277 0.135-0.277 0.3-0.135 0.3-0.3 0.3-0.48 0.18-0.7 0.4-0.48 0.4-0.579 0.4c-0.178 0-0.471 0.523-0.504 0.9-9e-3 0.11-0.107 0.208-0.217 0.217-0.377 0.033-0.9 0.326-0.9 0.504 0 0.099-0.18 0.359-0.4 0.579s-0.4 0.535-0.4 0.7-0.135 0.3-0.3 0.3-0.3 0.125-0.3 0.277-0.18 0.323-0.4 0.381c-0.22 0.057-0.4 0.248-0.4 0.423 0 0.176-0.135 0.319-0.3 0.319s-0.3 0.138-0.3 0.306c0 0.169-0.135 0.358-0.3 0.422-0.171 0.065-0.3 0.364-0.3 0.693 0 0.328-0.108 0.58-0.25 0.582-0.341 5e-3 -1.15 0.884-1.15 1.251 0 0.163-0.135 0.409-0.3 0.546s-0.3 0.373-0.3 0.524c0 0.152-0.131 0.276-0.291 0.276-0.174 0-0.344 0.281-0.422 0.7-0.075 0.401-0.25 0.7-0.409 0.7-0.167 0-0.278 0.211-0.278 0.528 0 0.29-0.135 0.628-0.3 0.75-0.164 0.122-0.319 0.465-0.342 0.762-0.024 0.298-0.084 0.501-0.132 0.452-0.212-0.211-0.626 0.406-0.626 0.932 0 0.379-0.103 0.576-0.3 0.576-0.21 0-0.3 0.211-0.3 0.7s-0.09 0.7-0.3 0.7c-0.222 0-0.3 0.233-0.3 0.9 0 0.636-0.082 0.9-0.279 0.9-0.359 0-0.521 0.439-0.521 1.416 0 0.564-0.084 0.784-0.3 0.784-0.226 0-0.3 0.242-0.3 0.979 0 0.685-0.09 1.013-0.3 1.093-0.232 0.089-0.3 0.478-0.3 1.722 0 0.937-0.083 1.606-0.2 1.606-0.13 0-0.2 2.867-0.2 8.2s0.07 8.2 0.2 8.2c0.114 0 0.2 0.592 0.2 1.376 0 0.978 0.087 1.447 0.3 1.624 0.192 0.159 0.3 0.602 0.3 1.231 0 0.688 0.09 1.016 0.3 1.097 0.165 0.063 0.301 0.353 0.303 0.643 4e-3 0.837 0.22 1.429 0.52 1.429 0.194 0 0.277 0.264 0.277 0.879 0 0.596 0.096 0.915 0.3 0.993 0.175 0.068 0.3 0.367 0.3 0.722 0 0.405 0.099 0.606 0.3 0.606 0.165 0 0.3 0.173 0.3 0.384 0 0.596 0.216 1.016 0.521 1.016 0.185 0 0.279 0.235 0.279 0.7 0 0.489 0.09 0.7 0.3 0.7 0.2 0 0.3 0.2 0.3 0.6 0 0.385 0.102 0.6 0.284 0.6 0.156 0 0.345 0.276 0.419 0.614 0.074 0.337 0.261 0.662 0.416 0.721 0.154 0.059 0.281 0.224 0.281 0.365s0.135 0.309 0.3 0.372c0.165 0.064 0.3 0.321 0.3 0.573 0 0.267 0.291 0.725 0.7 1.1 0.385 0.354 0.7 0.735 0.7 0.849 0 0.113 0.095 0.206 0.21 0.206 0.116 0 0.305 0.27 0.42 0.6s0.284 0.6 0.376 0.6 0.224 0.18 0.294 0.4 0.256 0.4 0.413 0.4c0.158 0 0.287 0.135 0.287 0.3s0.135 0.3 0.3 0.3 0.3 0.085 0.3 0.19c0 0.275 0.906 1.21 1.173 1.21 0.125 0 0.227 0.135 0.227 0.3s0.135 0.3 0.3 0.3 0.3 0.1 0.3 0.222c0 0.307 0.845 1.17 1.15 1.175 0.138 1e-3 0.25 0.138 0.25 0.303s0.135 0.3 0.3 0.3 0.3 0.102 0.3 0.227c0 0.256 0.93 1.173 1.189 1.173 0.092 0 0.22 0.135 0.283 0.3 0.064 0.165 0.253 0.3 0.422 0.3 0.168 0 0.306 0.095 0.306 0.21 0 0.116 0.27 0.305 0.6 0.42s0.6 0.335 0.6 0.49c0 0.154 0.18 0.28 0.4 0.28 0.222 0 0.4 0.133 0.4 0.3 0 0.2 0.2 0.3 0.6 0.3 0.405 0 0.6 0.099 0.6 0.306 0 0.169 0.158 0.366 0.35 0.439 0.193 0.073 0.469 0.25 0.614 0.394 0.146 0.143 0.438 0.261 0.65 0.261s0.386 0.135 0.386 0.3c0 0.195 0.195 0.3 0.556 0.3 0.308 0 0.708 0.178 0.898 0.4 0.188 0.22 0.513 0.4 0.723 0.4 0.209 0 0.432 0.135 0.495 0.3 0.068 0.175 0.367 0.3 0.722 0.3 0.405 0 0.606 0.099 0.606 0.3 0 0.215 0.219 0.3 0.769 0.3 0.515 0 0.889 0.132 1.131 0.4 0.199 0.22 0.608 0.4 0.91 0.4s0.599 0.134 0.662 0.3c0.079 0.204 0.398 0.3 1 0.3s0.922 0.096 1 0.3c0.085 0.221 0.434 0.3 1.322 0.3 0.939 0 1.206 0.066 1.206 0.3 0 0.165 0.135 0.311 0.3 0.325s0.39 0.048 0.5 0.075c0.11 0.028 0.74 0.061 1.4 0.075 0.922 0.019 1.2 0.094 1.2 0.325 0 0.256 0.535 0.3 3.612 0.3 2.357 0 3.569 0.069 3.488 0.2-0.07 0.113 0.094 0.2 0.376 0.2 0.275 0 0.556-0.09 0.624-0.2 0.074-0.12 1.427-0.2 3.387-0.2 2.657 0 3.31-0.056 3.513-0.3 0.168-0.203 0.621-0.3 1.398-0.3 0.816 0 1.286-0.108 1.625-0.373 0.294-0.229 0.934-0.41 1.667-0.469 0.654-0.054 1.224-0.201 1.267-0.328 0.042-0.126 0.367-0.23 0.721-0.23 0.355 0 0.82-0.132 1.034-0.294 0.213-0.161 0.591-0.296 0.84-0.3 0.249-3e-3 0.606-0.186 0.794-0.406 0.189-0.22 0.557-0.4 0.818-0.4s0.713-0.124 1.005-0.275c0.292-0.152 0.958-0.473 1.481-0.714 0.523-0.242 0.95-0.562 0.95-0.712 0-0.163 0.264-0.299 0.65-0.336 0.358-0.035 0.633-0.158 0.613-0.273-0.02-0.116 0.273-0.231 0.65-0.256 0.504-0.034 0.687 0.035 0.687 0.26 0 0.173 0.174 0.306 0.4 0.306 0.222 0 0.4 0.133 0.4 0.3 0 0.165 0.125 0.3 0.279 0.3 0.153 0 0.332 0.141 0.398 0.313s0.211 0.256 0.322 0.188c0.11-0.069 0.201-0.029 0.201 0.087 0 0.117 0.138 0.212 0.306 0.212 0.169 0 0.358 0.135 0.422 0.3 0.063 0.165 0.24 0.3 0.393 0.3 0.154 0 0.279 0.135 0.279 0.3s0.138 0.3 0.306 0.3c0.169 0 0.356 0.13 0.417 0.288s0.373 0.345 0.694 0.416c0.321 0.07 0.583 0.256 0.583 0.412s0.135 0.284 0.3 0.284 0.3 0.135 0.3 0.3 0.121 0.3 0.269 0.3 0.432 0.18 0.631 0.4 0.528 0.4 0.731 0.4 0.369 0.135 0.369 0.3 0.113 0.302 0.25 0.303c0.138 2e-3 0.462 0.227 0.721 0.5 0.259 0.274 0.597 0.497 0.75 0.497s0.279 0.09 0.279 0.2 0.138 0.2 0.306 0.2c0.169 0 0.358 0.135 0.422 0.3 0.063 0.165 0.24 0.3 0.393 0.3 0.154 0 0.279 0.115 0.279 0.256s0.248 0.37 0.55 0.508c1.118 0.512 1.45 0.737 1.45 0.983 0 0.139 0.138 0.253 0.306 0.253 0.169 0 0.356 0.13 0.417 0.288s0.373 0.345 0.694 0.416c0.321 0.07 0.583 0.256 0.583 0.412s0.138 0.284 0.306 0.284c0.169 0 0.358 0.135 0.422 0.3 0.063 0.165 0.226 0.3 0.362 0.3 0.137 0 0.411 0.18 0.61 0.4s0.473 0.4 0.61 0.4c0.136 0 0.299 0.135 0.362 0.3 0.064 0.165 0.215 0.3 0.336 0.3s0.356 0.135 0.521 0.3 0.473 0.3 0.685 0.3c0.22 0 0.386 0.137 0.386 0.319 0 0.175 0.18 0.366 0.4 0.423 0.22 0.058 0.4 0.229 0.4 0.381 0 0.163 0.209 0.277 0.506 0.277 0.279 0 0.558 0.135 0.622 0.3 0.063 0.165 0.192 0.3 0.287 0.3 0.094 0 0.487 0.315 0.872 0.7s0.883 0.7 1.106 0.7c0.228 0 0.407 0.132 0.407 0.3 0 0.167 0.178 0.3 0.4 0.3s0.4 0.133 0.4 0.3c0 0.165 0.076 0.3 0.169 0.3 0.094 0 0.377 0.18 0.631 0.4s0.627 0.4 0.831 0.4c0.203 0 0.369 0.135 0.369 0.3s0.09 0.3 0.2 0.3 0.38 0.18 0.6 0.4 0.58 0.4 0.8 0.4c0.222 0 0.4 0.133 0.4 0.3 0 0.165 0.135 0.3 0.3 0.3s0.3 0.135 0.3 0.3c0 0.167 0.178 0.3 0.4 0.3 0.22 0 0.4 0.124 0.4 0.275s0.27 0.329 0.6 0.395c0.352 0.07 0.6 0.246 0.6 0.425 0 0.172 0.175 0.305 0.4 0.305 0.22 0 0.4 0.125 0.4 0.278s0.202 0.33 0.45 0.393 0.748 0.388 1.112 0.722c0.365 0.334 0.738 0.607 0.829 0.607s0.218 0.135 0.281 0.3c0.064 0.165 0.337 0.3 0.608 0.3 0.317 0 0.538 0.143 0.62 0.4 0.07 0.22 0.246 0.4 0.392 0.4s0.317 0.135 0.38 0.3c0.064 0.165 0.298 0.3 0.522 0.3 0.223 0 0.383 0.113 0.356 0.25-0.028 0.141 0.191 0.278 0.5 0.313 0.303 0.035 0.55 0.182 0.55 0.327 0 0.275 1.018 1.042 2.158 1.627 0.142 0.072 0.571 0.436 0.954 0.807 0.382 0.372 0.874 0.676 1.092 0.676 0.219 0 0.396 0.134 0.396 0.3 0 0.167 0.178 0.3 0.4 0.3s0.4 0.133 0.4 0.3c0 0.165 0.135 0.3 0.3 0.3s0.48 0.18 0.7 0.4 0.54 0.4 0.712 0.4c0.171 0 0.252 0.096 0.18 0.213-0.073 0.118 0.057 0.263 0.288 0.324 0.231 0.06 0.42 0.194 0.42 0.297 0 0.102 0.315 0.318 0.7 0.479s0.7 0.381 0.7 0.49c0 0.108 0.135 0.197 0.3 0.197s0.3 0.135 0.3 0.3c0 0.188 0.19 0.3 0.506 0.3 0.279 0 0.557 0.132 0.619 0.292 0.061 0.161 0.284 0.347 0.493 0.414 0.21 0.066 0.382 0.25 0.382 0.407 0 0.158 0.096 0.287 0.214 0.287s0.35 0.135 0.515 0.3 0.518 0.3 0.785 0.3 0.488 0.113 0.489 0.25c4e-3 0.258 0.848 1.15 1.089 1.15 0.075 0 0.272 0.135 0.437 0.3s0.463 0.3 0.662 0.3 0.409 0.18 0.467 0.4c0.057 0.22 0.248 0.4 0.423 0.4 0.176 0 0.319 0.081 0.319 0.18 0 0.1 0.27 0.275 0.6 0.39s0.6 0.304 0.6 0.42c0 0.115 0.082 0.21 0.183 0.21 0.1 0 0.507 0.315 0.903 0.7 0.397 0.385 0.89 0.7 1.096 0.7s0.427 0.135 0.49 0.3c0.064 0.165 0.253 0.3 0.422 0.3 0.168 0 0.306 0.135 0.306 0.3s0.135 0.3 0.3 0.3 0.48 0.18 0.7 0.4 0.535 0.4 0.7 0.4 0.3 0.135 0.3 0.3 0.125 0.3 0.279 0.3c0.153 0 0.327 0.127 0.386 0.281 0.059 0.155 0.384 0.342 0.721 0.416 0.338 0.074 0.614 0.263 0.614 0.419s0.125 0.284 0.279 0.284c0.153 0 0.33 0.135 0.393 0.3 0.064 0.165 0.208 0.3 0.322 0.3 0.113 0 0.386 0.18 0.606 0.4s0.535 0.4 0.7 0.4 0.3 0.135 0.3 0.3c0 0.167 0.178 0.3 0.4 0.3s0.4 0.133 0.4 0.3c0 0.257 0.499 0.411 1.05 0.324 0.083-0.013 0.129 0.043 0.103 0.126-0.08 0.257 1.049 1.252 1.509 1.33 0.241 0.041 0.415 0.175 0.388 0.297-0.028 0.123 0.088 0.223 0.256 0.223 0.169 0 0.595 0.315 0.949 0.7 0.37 0.403 0.833 0.7 1.094 0.7 0.268 0 0.451 0.122 0.451 0.3 0 0.167 0.178 0.3 0.4 0.3 0.22 0 0.404 0.113 0.408 0.25 0.01 0.291 1.285 1.15 1.706 1.15 0.157 0 0.286 0.135 0.286 0.3s0.135 0.3 0.3 0.3 0.3 0.135 0.3 0.3 0.135 0.3 0.3 0.3 0.48 0.18 0.7 0.4 0.535 0.4 0.7 0.4 0.3 0.135 0.3 0.3c0 0.167 0.178 0.3 0.4 0.3 0.22 0 0.4 0.128 0.4 0.284s0.27 0.344 0.6 0.416 0.6 0.26 0.6 0.416 0.131 0.284 0.29 0.284c0.16 0 0.362 0.114 0.45 0.254s0.423 0.388 0.745 0.55c1.175 0.595 1.315 0.696 1.315 0.943 0 0.139 0.125 0.253 0.279 0.253 0.153 0 0.33 0.135 0.393 0.3 0.064 0.165 0.295 0.3 0.515 0.3 0.219 0 0.495 0.18 0.613 0.4s0.346 0.4 0.507 0.4 0.293 0.135 0.293 0.3 0.124 0.3 0.276 0.3c0.151 0 0.387 0.135 0.524 0.3s0.463 0.3 0.724 0.3c0.262 0 0.478 0.113 0.479 0.25 6e-3 0.372 0.787 1.029 1.742 1.465 0.465 0.212 0.851 0.475 0.858 0.585 0.018 0.255 1.332 1.1 1.711 1.1 0.157 0 0.286 0.135 0.286 0.3s0.131 0.3 0.29 0.3c0.16 0 0.362 0.113 0.45 0.25 0.203 0.318 1.383 1.15 1.631 1.15 0.102 0 0.238 0.135 0.301 0.3 0.064 0.165 0.253 0.3 0.422 0.3 0.168 0 0.306 0.135 0.306 0.3 0 0.167 0.178 0.3 0.402 0.3 0.221 0 0.556 0.18 0.744 0.4 0.189 0.22 0.458 0.4 0.598 0.4 0.141 0 0.256 0.124 0.256 0.275s0.276 0.33 0.613 0.398c0.338 0.067 0.559 0.211 0.492 0.319s0.107 0.254 0.387 0.324c0.279 0.07 0.508 0.253 0.508 0.406s0.125 0.278 0.279 0.278c0.153 0 0.33 0.135 0.393 0.3 0.068 0.175 0.367 0.3 0.722 0.3 0.35 0 0.607 0.106 0.609 0.25 5e-3 0.299 0.756 1.027 1.247 1.208 0.193 0.071 0.35 0.222 0.35 0.336 0 0.113 0.225 0.206 0.5 0.206 0.324 0 0.5 0.112 0.5 0.319 0 0.175 0.18 0.366 0.4 0.423 0.22 0.058 0.4 0.229 0.4 0.381s0.18 0.277 0.4 0.277 0.4 0.084 0.4 0.187c0 0.102 0.187 0.245 0.416 0.318s0.683 0.411 1.009 0.753c0.326 0.341 0.789 0.65 1.029 0.687 0.24 0.036 0.511 0.199 0.601 0.361 0.091 0.162 0.295 0.294 0.455 0.294 0.159 0 0.29 0.135 0.29 0.3s0.076 0.3 0.169 0.3c0.094 0 0.377 0.18 0.631 0.4s0.627 0.4 0.831 0.4c0.203 0 0.369 0.135 0.369 0.3s0.135 0.3 0.3 0.3 0.3 0.095 0.3 0.21c0 0.116 0.315 0.342 0.7 0.503s0.7 0.381 0.7 0.49c0 0.108 0.135 0.197 0.3 0.197s0.3 0.135 0.3 0.3 0.129 0.3 0.286 0.3c0.421 0 1.696 0.859 1.706 1.15 4e-3 0.138 0.188 0.25 0.408 0.25 0.222 0 0.4 0.133 0.4 0.3 0 0.165 0.158 0.3 0.35 0.301 0.193 0 0.693 0.315 1.111 0.7 0.419 0.384 0.837 0.699 0.929 0.699s0.219 0.135 0.282 0.3c0.064 0.165 0.343 0.3 0.622 0.3 0.321 0 0.506 0.112 0.506 0.306 0 0.169 0.158 0.364 0.35 0.435 0.193 0.071 0.422 0.248 0.51 0.394s0.338 0.265 0.556 0.265 0.448 0.135 0.512 0.3c0.063 0.165 0.285 0.3 0.493 0.3 0.209 0 0.379 0.118 0.379 0.262 0 0.359 1.09 1.138 1.592 1.138 0.229 0 0.408 0.131 0.408 0.3 0 0.165 0.135 0.3 0.3 0.3s0.3 0.12 0.3 0.267 0.447 0.484 0.992 0.75c0.546 0.266 0.996 0.596 1 0.733 5e-3 0.138 0.188 0.25 0.408 0.25 0.222 0 0.4 0.133 0.4 0.3 0 0.165 0.135 0.3 0.3 0.3s0.464 0.164 0.665 0.365 0.516 0.423 0.7 0.494 0.335 0.221 0.335 0.335c0 0.113 0.135 0.206 0.3 0.206s0.3 0.092 0.3 0.204c0 0.113 0.248 0.313 0.55 0.446 0.303 0.133 0.622 0.356 0.71 0.496s0.29 0.254 0.45 0.254c0.159 0 0.29 0.135 0.29 0.3 0 0.186 0.188 0.3 0.493 0.3 0.288 0 0.582 0.166 0.707 0.4 0.118 0.22 0.346 0.4 0.507 0.4 0.544 0 0.368 1.138-0.199 1.28-0.62 0.156-1.41 0.883-1.594 1.47-0.077 0.247-0.356 0.503-0.62 0.569-0.264 0.067-0.529 0.269-0.589 0.451-0.061 0.181-0.559 0.804-1.108 1.383-0.548 0.579-0.997 1.142-0.997 1.25s-0.135 0.197-0.3 0.197-0.3 0.125-0.3 0.277-0.18 0.323-0.4 0.381c-0.22 0.057-0.4 0.248-0.4 0.423 0 0.176-0.135 0.319-0.3 0.319s-0.3 0.135-0.3 0.3-0.135 0.3-0.3 0.3c-0.167 0-0.3 0.178-0.3 0.4s-0.133 0.4-0.3 0.4c-0.165 0-0.3 0.125-0.3 0.279 0 0.153-0.141 0.332-0.313 0.398s-0.256 0.211-0.188 0.322c0.069 0.11 0.029 0.201-0.087 0.201-0.117 0-0.212 0.135-0.212 0.3s-0.135 0.3-0.3 0.3c-0.167 0-0.3 0.178-0.3 0.4 0 0.22-0.112 0.402-0.25 0.403-0.338 5e-3 -1.06 0.792-1.235 1.347-0.078 0.248-0.226 0.45-0.328 0.45-0.103 0-0.187 0.17-0.187 0.377 0 0.208-0.179 0.423-0.4 0.481-0.22 0.057-0.4 0.248-0.4 0.423 0 0.176-0.135 0.319-0.3 0.319-0.2 0-0.3 0.2-0.3 0.6s-0.1 0.6-0.3 0.6c-0.165 0-0.3 0.08-0.3 0.179 0 0.098-0.271 0.469-0.602 0.823-0.331 0.355-0.654 0.853-0.718 1.107s-0.243 0.511-0.398 0.57c-0.155 0.06-0.282 0.201-0.282 0.315 0 0.113-0.18 0.386-0.4 0.606s-0.4 0.57-0.4 0.779c0 0.208-0.135 0.43-0.3 0.493-0.165 0.064-0.3 0.343-0.3 0.622 0 0.316-0.112 0.506-0.3 0.506-0.167 0-0.3 0.178-0.3 0.4 0 0.22-0.128 0.4-0.284 0.4s-0.342 0.262-0.412 0.583c-0.071 0.321-0.258 0.633-0.416 0.694-0.163 0.062-0.288 0.374-0.288 0.717 0 0.405-0.099 0.606-0.3 0.606-0.165 0-0.3 0.138-0.3 0.306 0 0.169-0.135 0.358-0.3 0.422-0.165 0.063-0.3 0.279-0.3 0.479s-0.158 0.522-0.35 0.714c-0.363 0.364-0.384 0.415-0.425 1.079-0.014 0.22-0.16 0.4-0.325 0.4-0.2 0-0.3 0.2-0.3 0.6 0 0.392-0.101 0.6-0.291 0.6-0.173 0-0.343 0.278-0.42 0.686-0.07 0.378-0.254 0.735-0.409 0.794s-0.28 0.378-0.28 0.714c0 0.405-0.099 0.606-0.3 0.606-0.199 0-0.3 0.199-0.3 0.59 0 0.325-0.138 0.667-0.306 0.762-0.169 0.094-0.362 0.526-0.431 0.959-0.068 0.434-0.245 0.861-0.393 0.949-0.149 0.088-0.27 0.425-0.27 0.75 0 0.391-0.101 0.59-0.3 0.59-0.21 0-0.3 0.212-0.3 0.708 0 0.432-0.156 0.876-0.4 1.138-0.22 0.236-0.4 0.644-0.4 0.906s-0.135 0.612-0.3 0.777-0.3 0.653-0.3 1.085c0 0.565-0.084 0.786-0.3 0.786-0.227 0-0.3 0.244-0.3 1 0 0.718-0.078 1-0.277 1-0.292 0-0.516 0.588-0.52 1.364-2e-3 0.256-0.138 0.6-0.303 0.765-0.193 0.193-0.3 0.687-0.3 1.385 0 0.832-0.07 1.086-0.3 1.086-0.228 0-0.3 0.248-0.3 1.028 0 0.711-0.099 1.1-0.32 1.262-0.218 0.159-0.354 0.677-0.428 1.622-0.067 0.86-0.212 1.449-0.38 1.548-0.191 0.112-0.272 0.607-0.272 1.656 0 1.146-0.07 1.524-0.3 1.612-0.233 0.089-0.3 0.481-0.3 1.753 0 0.902-0.092 1.731-0.205 1.844-0.341 0.341-0.444 1.059-0.543 3.76-0.067 1.842-0.174 2.666-0.373 2.865-0.416 0.416-0.415 20.885 1e-3 21.301 0.204 0.205 0.302 1.033 0.362 3.065 0.088 2.981 0.123 3.229 0.508 3.644 0.163 0.175 0.25 0.924 0.25 2.161 0 1.497 0.063 1.916 0.3 2.007 0.231 0.088 0.3 0.474 0.3 1.683 0 1.123 0.078 1.615 0.276 1.729 0.177 0.103 0.306 0.652 0.361 1.534 0.061 0.989 0.18 1.444 0.424 1.622 0.248 0.181 0.339 0.545 0.339 1.352 0 0.736 0.1 1.186 0.3 1.352 0.182 0.151 0.3 0.589 0.3 1.115 0 0.522 0.109 0.928 0.275 1.025 0.151 0.088 0.324 0.63 0.384 1.203 0.121 1.152 0.273 1.523 0.555 1.348 0.105-0.065 0.186 0.326 0.186 0.903 0 0.721 0.088 1.052 0.3 1.134 0.182 0.07 0.3 0.372 0.3 0.769 0 0.36 0.135 0.766 0.3 0.903s0.3 0.469 0.3 0.738c0 0.578 0.356 1.313 0.572 1.18 0.083-0.052 0.172 0.283 0.197 0.744s0.177 0.938 0.338 1.06 0.293 0.45 0.293 0.729c0 0.278 0.135 0.558 0.3 0.621 0.175 0.068 0.3 0.367 0.3 0.722 0 0.339 0.176 0.782 0.4 1.006 0.222 0.222 0.4 0.667 0.4 1 0 0.4 0.1 0.6 0.3 0.6 0.183 0 0.3 0.186 0.3 0.476 0 0.261 0.124 0.578 0.276 0.704s0.329 0.497 0.395 0.824c0.07 0.349 0.246 0.596 0.424 0.596 0.215 0 0.305 0.206 0.305 0.7 0 0.489 0.09 0.7 0.3 0.7 0.201 0 0.3 0.201 0.3 0.606 0 0.343 0.125 0.655 0.288 0.717 0.158 0.061 0.345 0.373 0.416 0.694 0.07 0.321 0.256 0.583 0.412 0.583 0.183 0 0.284 0.216 0.284 0.606 0 0.355 0.125 0.654 0.3 0.722 0.165 0.063 0.3 0.203 0.3 0.312 0 0.108 0.179 0.424 0.397 0.702 0.219 0.278 0.345 0.59 0.28 0.695-0.064 0.104 0.072 0.239 0.303 0.3 0.305 0.08 0.42 0.269 0.42 0.693 0 0.333 0.128 0.632 0.3 0.698 0.165 0.063 0.3 0.24 0.3 0.393 0 0.154 0.131 0.279 0.291 0.279 0.174 0 0.344 0.281 0.422 0.7 0.072 0.385 0.246 0.7 0.386 0.7s0.307 0.158 0.372 0.35c0.15 0.447 0.472 0.948 1.256 1.955 0.344 0.443 0.665 0.983 0.712 1.2 0.046 0.217 0.192 0.373 0.323 0.345 0.131-0.027 0.238 0.13 0.238 0.35 0 0.222 0.133 0.4 0.3 0.4 0.165 0 0.3 0.132 0.3 0.293s0.18 0.389 0.4 0.507c0.234 0.125 0.4 0.419 0.4 0.707 0 0.305 0.114 0.493 0.3 0.493 0.165 0 0.3 0.135 0.3 0.3s0.125 0.3 0.277 0.3c1.111 0 0.421 0.857-5.308 6.597-3.558 3.565-5.738 5.892-5.65 6.034 0.089 0.143 0.055 0.177-0.089 0.087-0.311-0.192-27.501 27.005-27.309 27.316 0.087 0.141 0.052 0.173-0.094 0.083-0.143-0.089-0.777 0.406-1.627 1.269-1.442 1.465-3.6 2.133-3.6 1.114 0-0.26-1.554-0.465-2.45-0.324-0.082 0.013-0.127-0.081-0.1-0.208 0.075-0.35-0.765-0.526-2.613-0.548-0.915-0.011-1.831-0.11-2.037-0.22-0.249-0.133-0.549-0.133-0.898-1e-3 -0.374 0.142-0.486 0.137-0.39-0.019 0.136-0.22-0.628-0.199-6.242 0.173-1.691 0.112-2.322 0.232-2.615 0.497-0.261 0.236-0.716 0.35-1.399 0.35-0.716 0-1.047 0.088-1.128 0.3-0.079 0.204-0.398 0.3-0.997 0.3-0.504 0-0.98 0.118-1.11 0.275-0.126 0.151-0.587 0.332-1.025 0.402-0.514 0.083-0.796 0.233-0.796 0.425 0 0.207-0.214 0.298-0.7 0.298-0.489 0-0.7 0.09-0.7 0.3s-0.211 0.3-0.7 0.3-0.7 0.09-0.7 0.3c0 0.167-0.178 0.3-0.402 0.3-0.221 0-0.556 0.18-0.744 0.4-0.189 0.22-0.551 0.4-0.805 0.4s-0.513 0.135-0.577 0.3c-0.063 0.165-0.24 0.3-0.393 0.3-0.154 0-0.279 0.089-0.279 0.197 0 0.109-0.315 0.329-0.7 0.49s-0.7 0.387-0.7 0.503c0 0.115-0.125 0.21-0.279 0.21-0.153 0-0.33 0.135-0.393 0.3-0.064 0.165-0.253 0.3-0.422 0.3-0.168 0-0.306 0.135-0.306 0.3s-0.135 0.3-0.3 0.3-0.3 0.138-0.3 0.306c0 0.169-0.156 0.366-0.346 0.439s-0.537 0.34-0.773 0.594c-0.235 0.254-0.529 0.461-0.654 0.461s-0.229 0.068-0.231 0.15-0.452 0.624-1 1.203-0.996 1.187-0.996 1.35-0.112 0.299-0.25 0.3c-0.258 4e-3 -1.15 0.848-1.15 1.089 0 0.075-0.135 0.272-0.3 0.437s-0.3 0.473-0.3 0.685c0 0.213-0.137 0.386-0.305 0.386s-0.387 0.216-0.488 0.481c-0.1 0.264-0.278 0.539-0.395 0.611-0.116 0.073-0.212 0.306-0.212 0.52 0 0.213-0.135 0.388-0.3 0.388-0.208 0-0.3 0.209-0.3 0.677 0 0.508-0.099 0.702-0.4 0.781-0.264 0.069-0.4 0.273-0.4 0.599 0 0.272-0.135 0.606-0.3 0.743s-0.3 0.453-0.3 0.703-0.135 0.506-0.3 0.569c-0.188 0.073-0.3 0.378-0.3 0.822 0 0.388-0.076 0.706-0.168 0.706-0.271 0-0.632 0.964-0.632 1.688 0 0.41-0.116 0.714-0.3 0.784-0.224 0.086-0.3 0.445-0.3 1.422 0 1.028-0.064 1.306-0.3 1.306-0.247 0-0.3 0.364-0.3 2.076 0 1.559-0.071 2.134-0.287 2.313-0.416 0.346-0.416 5.276 0 5.622 0.215 0.178 0.287 0.751 0.287 2.292 0 1.641 0.06 2.077 0.3 2.169 0.216 0.083 0.3 0.42 0.3 1.197 0 0.674 0.104 1.168 0.275 1.31 0.151 0.126 0.319 0.692 0.374 1.258 0.06 0.629 0.226 1.123 0.425 1.269 0.183 0.133 0.326 0.517 0.326 0.872 0 0.38 0.121 0.681 0.3 0.75 0.171 0.065 0.3 0.364 0.3 0.693 0 0.381 0.102 0.579 0.3 0.579 0.199 0 0.3 0.199 0.3 0.593 0 0.388 0.138 0.667 0.4 0.807s0.4 0.419 0.4 0.807c0 0.394 0.101 0.593 0.3 0.593 0.185 0 0.3 0.188 0.3 0.49 0 0.27 0.119 0.562 0.265 0.65s0.323 0.317 0.394 0.51 0.266 0.35 0.435 0.35c0.207 0 0.306 0.195 0.306 0.6 0 0.4 0.1 0.6 0.3 0.6 0.165 0 0.302 0.113 0.303 0.25 5e-3 0.305 0.868 1.15 1.175 1.15 0.122 0 0.222 0.135 0.222 0.3s0.184 0.502 0.409 0.75c0.225 0.247 0.54 0.593 0.7 0.767s0.291 0.422 0.291 0.55 0.082 0.233 0.183 0.233c0.1 0 0.487 0.293 0.86 0.65 0.372 0.357 0.93 0.83 1.238 1.05 0.309 0.22 0.868 0.693 1.244 1.05 0.375 0.358 0.771 0.65 0.879 0.65s0.196 0.135 0.196 0.3c0 0.167 0.178 0.3 0.4 0.3 0.22 0 0.58 0.18 0.8 0.4s0.48 0.4 0.579 0.4c0.098 0 0.23 0.135 0.293 0.3 0.064 0.165 0.322 0.3 0.574 0.3s0.57 0.18 0.708 0.4c0.141 0.226 0.466 0.4 0.748 0.4 0.309 0 0.498 0.114 0.498 0.3 0 0.21 0.211 0.3 0.7 0.3s0.7 0.09 0.7 0.3c0 0.195 0.195 0.3 0.556 0.3 0.308 0 0.708 0.178 0.898 0.4 0.188 0.22 0.545 0.403 0.794 0.406 0.249 4e-3 0.627 0.139 0.84 0.3 0.214 0.162 0.675 0.294 1.026 0.294 0.35 0 0.749 0.135 0.886 0.3 0.165 0.199 0.612 0.3 1.324 0.3 0.592 0 1.076 0.09 1.076 0.2 0 0.13 2.767 0.2 7.9 0.2s7.9-0.07 7.9-0.2c0-0.11 0.428-0.203 0.95-0.206 0.522-4e-3 1.125-0.139 1.338-0.3 0.214-0.162 0.677-0.294 1.029-0.294 0.385 0 0.686-0.12 0.755-0.3 0.067-0.173 0.365-0.3 0.705-0.3 0.792 0 1.223-0.184 1.223-0.521 0-0.185 0.235-0.279 0.7-0.279 0.489 0 0.7-0.09 0.7-0.3 0-0.201 0.201-0.3 0.606-0.3 0.355 0 0.654-0.125 0.722-0.3 0.063-0.165 0.339-0.3 0.612-0.3 0.329 0 0.533-0.135 0.602-0.4 0.073-0.279 0.273-0.4 0.66-0.4 0.309 0 0.606-0.133 0.67-0.3 0.064-0.165 0.253-0.3 0.422-0.3 0.168 0 0.306-0.135 0.306-0.3 0-0.167 0.178-0.3 0.4-0.3 0.22 0 0.58-0.18 0.8-0.4s0.49-0.4 0.6-0.4 0.2-0.135 0.2-0.3 0.131-0.3 0.29-0.3c0.16 0 0.362-0.114 0.45-0.254s0.413-0.365 0.721-0.501c0.309-0.136 0.506-0.336 0.438-0.446-0.067-0.109-4e-3 -0.199 0.14-0.199 0.145 0 0.526-0.315 0.847-0.7s0.703-0.7 0.849-0.7 0.265-0.088 0.265-0.196 0.315-0.521 0.7-0.918c0.385-0.396 0.7-0.893 0.7-1.103 0-0.211 0.135-0.383 0.3-0.383s0.3-0.135 0.3-0.3 0.138-0.3 0.306-0.3c0.169 0 0.366-0.157 0.439-0.35s0.25-0.469 0.394-0.614c0.143-0.146 0.261-0.438 0.261-0.65s0.135-0.386 0.3-0.386c0.167 0 0.3-0.178 0.3-0.4 0-0.22 0.128-0.4 0.284-0.4s0.342-0.262 0.412-0.583c0.071-0.321 0.258-0.633 0.416-0.694 0.163-0.062 0.288-0.374 0.288-0.717 0-0.405 0.099-0.606 0.3-0.606 0.165 0 0.3-0.17 0.3-0.379 0-0.208 0.126-0.427 0.28-0.486s0.341-0.466 0.415-0.905 0.263-0.848 0.42-0.908c0.17-0.065 0.285-0.386 0.285-0.791 0-0.375 0.135-0.794 0.3-0.931 0.172-0.143 0.3-0.579 0.3-1.024 0-0.485 0.087-0.757 0.232-0.726 0.294 0.063 0.521-0.692 0.554-1.85 0.015-0.495 0.159-1.075 0.32-1.288 0.22-0.291 0.294-0.985 0.294-2.765 0-1.845 0.067-2.443 0.3-2.676 0.422-0.422 0.422-3.32 0-3.742-0.234-0.234-0.3-0.839-0.3-2.749 0-1.784-0.074-2.534-0.273-2.764-0.506-0.584-0.609-3.232-0.13-3.357 0.222-0.058 0.403-0.23 0.403-0.382s0.135-0.277 0.3-0.277 0.3-0.135 0.3-0.3 0.135-0.3 0.3-0.3 0.3-0.143 0.3-0.319c0-0.175 0.18-0.366 0.4-0.423 0.22-0.058 0.4-0.229 0.4-0.381s0.135-0.277 0.3-0.277 0.3-0.135 0.3-0.3 0.135-0.3 0.3-0.3 0.3-0.102 0.3-0.227c0-0.267 0.935-1.173 1.21-1.173 0.105 0 0.19-0.135 0.19-0.3s0.135-0.3 0.3-0.3 0.3-0.102 0.3-0.227c0-0.267 0.935-1.173 1.21-1.173 0.105 0 0.19-0.135 0.19-0.3s0.135-0.3 0.3-0.3 0.3-0.102 0.3-0.227c0-0.267 0.935-1.173 1.21-1.173 0.105 0 0.19-0.135 0.19-0.3s0.135-0.3 0.3-0.3 0.3-0.102 0.3-0.227c0-0.267 0.935-1.173 1.21-1.173 0.105 0 0.19-0.135 0.19-0.3s0.135-0.3 0.3-0.3 0.3-0.102 0.3-0.227c0-0.267 0.935-1.173 1.21-1.173 0.105 0 0.19-0.135 0.19-0.3s0.135-0.3 0.3-0.3 0.3-0.102 0.3-0.227c0-0.267 0.935-1.173 1.21-1.173 0.105 0 0.19-0.135 0.19-0.3s0.135-0.3 0.3-0.3 0.3-0.102 0.3-0.227c0-0.267 0.935-1.173 1.21-1.173 0.105 0 0.19-0.085 0.19-0.19 0-0.275 0.906-1.21 1.173-1.21 0.125 0 0.227-0.135 0.227-0.3s0.135-0.3 0.3-0.3 0.3-0.085 0.3-0.19c0-0.275 0.906-1.21 1.173-1.21 0.125 0 0.227-0.135 0.227-0.3s0.135-0.3 0.3-0.3 0.3-0.085 0.3-0.19c0-0.275 0.906-1.21 1.173-1.21 0.125 0 0.227-0.135 0.227-0.3s0.135-0.3 0.3-0.3 0.3-0.085 0.3-0.19c0-0.275 0.906-1.21 1.173-1.21 0.125 0 0.227-0.135 0.227-0.3s0.135-0.3 0.3-0.3 0.3-0.085 0.3-0.19c0-0.275 0.906-1.21 1.173-1.21 0.125 0 0.227-0.135 0.227-0.3s0.135-0.3 0.3-0.3 0.3-0.085 0.3-0.19c0-0.275 0.906-1.21 1.173-1.21 0.125 0 0.227-0.135 0.227-0.3s0.135-0.3 0.3-0.3 0.3-0.085 0.3-0.19c0-0.275 0.906-1.21 1.173-1.21 0.125 0 0.227-0.135 0.227-0.3s0.135-0.3 0.3-0.3 0.3-0.135 0.3-0.3 0.135-0.3 0.3-0.3 0.3-0.143 0.3-0.319c0-0.175 0.18-0.366 0.4-0.423 0.22-0.058 0.4-0.229 0.4-0.381s0.135-0.277 0.3-0.277 0.3-0.135 0.3-0.3 0.135-0.3 0.3-0.3 0.3-0.143 0.3-0.319c0-0.175 0.18-0.366 0.4-0.423 0.22-0.058 0.4-0.229 0.4-0.381s0.135-0.277 0.3-0.277 0.3-0.135 0.3-0.3 0.135-0.3 0.3-0.3 0.3-0.143 0.3-0.319c0-0.175 0.18-0.366 0.4-0.423 0.22-0.058 0.4-0.229 0.4-0.381s0.135-0.277 0.3-0.277 0.3-0.135 0.3-0.3 0.135-0.3 0.3-0.3 0.3-0.143 0.3-0.319c0-0.175 0.18-0.366 0.4-0.423 0.22-0.058 0.4-0.229 0.4-0.381s0.135-0.277 0.3-0.277 0.3-0.135 0.3-0.3 0.135-0.3 0.3-0.3 0.3-0.102 0.3-0.227c0-0.267 0.935-1.173 1.21-1.173 0.105 0 0.19-0.135 0.19-0.3s0.135-0.3 0.3-0.3 0.3-0.102 0.3-0.227c0-0.267 0.935-1.173 1.21-1.173 0.105 0 0.19-0.135 0.19-0.3s0.079-0.3 0.176-0.3c0.096 0 0.287 0.135 0.424 0.3s0.373 0.3 0.524 0.3c0.152 0 0.276 0.131 0.276 0.291 0 0.174 0.281 0.344 0.7 0.422 0.401 0.075 0.7 0.25 0.7 0.409 0 0.153 0.096 0.278 0.214 0.278s0.35 0.135 0.515 0.3 0.518 0.3 0.785 0.3c0.303 0 0.486 0.115 0.486 0.306 0 0.169 0.158 0.366 0.35 0.439 0.193 0.073 0.469 0.25 0.614 0.394 0.146 0.143 0.429 0.261 0.629 0.261s0.416 0.135 0.479 0.3c0.064 0.165 0.322 0.3 0.574 0.3s0.57 0.18 0.708 0.4c0.141 0.226 0.466 0.4 0.748 0.4 0.309 0 0.498 0.114 0.498 0.3 0 0.201 0.201 0.3 0.606 0.3 0.355 0 0.654 0.125 0.722 0.3 0.063 0.165 0.244 0.3 0.402 0.3s0.48 0.18 0.716 0.4 0.554 0.4 0.706 0.4 0.412 0.135 0.577 0.3 0.518 0.3 0.785 0.3 0.486 0.088 0.486 0.196 0.238 0.256 0.529 0.329 0.696 0.3 0.9 0.504 0.631 0.371 0.95 0.371c0.329 0 0.628 0.129 0.693 0.3 0.068 0.175 0.367 0.3 0.722 0.3 0.405 0 0.606 0.099 0.606 0.3 0 0.21 0.211 0.3 0.7 0.3 0.463 0 0.7 0.094 0.7 0.277 0 0.3 0.592 0.516 1.429 0.52 0.29 2e-3 0.58 0.138 0.643 0.303 0.064 0.165 0.346 0.3 0.628 0.3s0.564 0.135 0.628 0.3c0.078 0.204 0.397 0.3 0.993 0.3 0.615 0 0.879 0.083 0.879 0.277 0 0.3 0.592 0.516 1.429 0.52 0.29 2e-3 0.58 0.138 0.643 0.303 0.079 0.206 0.401 0.3 1.022 0.3 0.672 0 0.906 0.077 0.906 0.3 0 0.227 0.244 0.3 1 0.3 0.718 0 1 0.078 1 0.277 0 0.344 0.615 0.517 1.85 0.52 0.71 2e-3 0.95 0.079 0.95 0.303 0 0.227 0.244 0.3 1 0.3s1 0.073 1 0.3c0 0.236 0.278 0.3 1.3 0.3 0.97 0 1.3 0.07 1.3 0.275 0 0.33 0.863 0.525 2.325 0.525 0.822 0 1.075 0.071 1.075 0.3 0 0.24 0.301 0.3 1.506 0.3 1.155 0 1.533 0.07 1.622 0.3 0.089 0.234 0.487 0.3 1.8 0.3 1.219 0 1.713 0.074 1.787 0.267 0.123 0.32-0.029 0.298 3.177 0.459 1.772 0.088 2.678 0.216 2.864 0.402 0.211 0.21 1.128 0.272 4.037 0.272 3.161 0 3.783 0.048 3.879 0.3 0.17 0.443 11.749 0.451 12.192 8e-3 0.232-0.233 1.015-0.298 3.814-0.317 2.632-0.018 3.559-0.089 3.671-0.281 0.105-0.178 0.914-0.287 2.634-0.356 1.989-0.08 2.53-0.165 2.722-0.427 0.185-0.253 0.582-0.327 1.746-0.327 1.154 0 1.533-0.07 1.621-0.3 0.086-0.222 0.438-0.3 1.356-0.3 0.771 0 1.36-0.105 1.556-0.277 0.174-0.152 0.869-0.321 1.545-0.375 1.312-0.105 1.748-0.262 1.562-0.562-0.066-0.107 0.391-0.186 1.073-0.186 0.811 0 1.266-0.095 1.436-0.3 0.142-0.171 0.578-0.3 1.01-0.3 0.419 0 0.896-0.135 1.061-0.3s0.509-0.301 0.765-0.303c0.776-4e-3 1.364-0.228 1.364-0.52 0-0.199 0.282-0.277 1-0.277 0.756 0 1-0.073 1-0.3 0-0.216 0.221-0.3 0.786-0.3 0.432 0 0.905-0.12 1.051-0.266 0.147-0.146 0.62-0.323 1.053-0.394 0.433-0.07 0.864-0.265 0.958-0.434 0.095-0.168 0.44-0.306 0.768-0.306 0.346 0 0.645-0.126 0.712-0.3 0.064-0.167 0.361-0.3 0.672-0.3s0.608-0.133 0.672-0.3c0.064-0.165 0.321-0.301 0.572-0.303 0.769-4e-3 1.356-0.23 1.356-0.52 0-0.183 0.237-0.277 0.7-0.277 0.489 0 0.7-0.09 0.7-0.3 0-0.183 0.186-0.3 0.476-0.3 0.261 0 0.587-0.135 0.724-0.3s0.419-0.3 0.626-0.3c0.208 0 0.532-0.18 0.72-0.4 0.19-0.222 0.59-0.4 0.898-0.4 0.361 0 0.556-0.105 0.556-0.3 0-0.201 0.201-0.3 0.606-0.3 0.343 0 0.655-0.125 0.717-0.288 0.061-0.158 0.373-0.345 0.694-0.416 0.321-0.07 0.583-0.256 0.583-0.412 0-0.183 0.216-0.284 0.606-0.284 0.355 0 0.654-0.125 0.722-0.3 0.063-0.165 0.276-0.3 0.472-0.3s0.409-0.135 0.472-0.3c0.064-0.165 0.307-0.3 0.54-0.3 0.257 0 0.467-0.158 0.53-0.4 0.074-0.285 0.273-0.4 0.688-0.4 0.333 0 0.632-0.128 0.698-0.3 0.063-0.165 0.236-0.3 0.383-0.3 0.148 0 0.349-0.143 0.447-0.318s0.235-0.318 0.305-0.317c0.448 1e-3 0.937-0.254 0.937-0.488 0-0.163 0.209-0.277 0.506-0.277 0.279 0 0.558-0.135 0.622-0.3 0.063-0.165 0.285-0.3 0.493-0.3 0.209 0 0.379-0.135 0.379-0.3s0.135-0.3 0.3-0.3 0.48-0.18 0.7-0.4 0.535-0.4 0.7-0.4 0.3-0.135 0.3-0.3 0.135-0.311 0.3-0.325c0.564-0.047 0.629-0.075 0.979-0.425 0.192-0.192 0.433-0.35 0.535-0.35s0.186-0.135 0.186-0.3 0.124-0.3 0.276-0.3c0.151 0 0.387-0.135 0.524-0.3s0.395-0.302 0.574-0.303c0.364-4e-3 1.226-0.831 1.226-1.175 0-0.122 0.17-0.222 0.379-0.222 0.208 0 0.43-0.135 0.493-0.3 0.064-0.165 0.249-0.3 0.412-0.3s0.603-0.315 0.977-0.7c0.373-0.385 0.783-0.7 0.909-0.7 0.127 0 0.23-0.135 0.23-0.3s0.135-0.3 0.3-0.3 0.3-0.125 0.3-0.277 0.18-0.323 0.4-0.381c0.22-0.057 0.4-0.248 0.4-0.423 0-0.201 0.173-0.319 0.465-0.319 0.287 0 0.689-0.268 1.049-0.7 0.321-0.385 0.697-0.7 0.835-0.7s0.251-0.135 0.251-0.3 0.135-0.3 0.3-0.3 0.3-0.135 0.3-0.3 0.086-0.3 0.191-0.3 0.42-0.229 0.7-0.509 0.509-0.595 0.509-0.7 0.135-0.191 0.3-0.191 0.3-0.135 0.3-0.3 0.113-0.302 0.25-0.303c0.305-5e-3 1.15-0.868 1.15-1.175 0-0.122 0.135-0.222 0.3-0.222s0.3-0.135 0.3-0.3 0.086-0.3 0.191-0.3 0.42-0.229 0.7-0.509 0.509-0.595 0.509-0.7 0.135-0.191 0.3-0.191 0.3-0.135 0.3-0.3 0.135-0.3 0.3-0.3 0.3-0.113 0.3-0.251 0.315-0.514 0.7-0.835c0.432-0.36 0.7-0.762 0.7-1.049 0-0.27 0.12-0.465 0.287-0.465 0.157 0 0.343-0.18 0.413-0.4s0.256-0.4 0.413-0.4c0.158 0 0.287-0.135 0.287-0.3s0.135-0.3 0.3-0.3 0.3-0.103 0.3-0.23c0-0.126 0.315-0.536 0.7-0.909 0.385-0.374 0.7-0.856 0.7-1.071 0-0.214 0.135-0.39 0.3-0.39 0.167 0 0.3-0.178 0.3-0.4 0-0.226 0.133-0.4 0.306-0.4 0.169 0 0.367-0.157 0.44-0.35 0.074-0.192 0.208-0.44 0.298-0.55s0.342-0.416 0.56-0.681c0.218-0.264 0.396-0.549 0.396-0.632 0-0.084 0.315-0.477 0.7-0.873 0.385-0.397 0.7-0.9 0.7-1.118 0-0.219 0.134-0.396 0.3-0.396 0.167 0 0.3-0.178 0.3-0.4 0-0.22 0.128-0.4 0.284-0.4s0.344-0.27 0.416-0.6 0.26-0.6 0.416-0.6 0.284-0.141 0.284-0.314 0.135-0.45 0.3-0.615 0.3-0.473 0.3-0.685 0.113-0.386 0.25-0.386c0.138 0 0.473-0.428 0.745-0.95s0.61-1.022 0.75-1.11 0.255-0.415 0.255-0.727c0-0.407 0.118-0.597 0.42-0.676 0.231-0.061 0.367-0.196 0.303-0.3-0.065-0.105 0.06-0.416 0.278-0.693 0.217-0.276 0.431-0.714 0.474-0.973 0.044-0.259 0.18-0.449 0.302-0.421 0.123 0.027 0.223-0.175 0.223-0.45s0.092-0.5 0.204-0.5c0.113 0 0.313-0.248 0.446-0.55s0.356-0.622 0.496-0.71 0.254-0.416 0.254-0.729c0-0.321 0.131-0.618 0.3-0.683 0.175-0.068 0.3-0.367 0.3-0.722 0-0.405 0.099-0.606 0.3-0.606 0.165 0 0.3-0.168 0.3-0.373s0.18-0.602 0.4-0.882c0.231-0.294 0.4-0.811 0.4-1.227 0-0.505 0.089-0.718 0.3-0.718 0.21 0 0.3-0.211 0.3-0.7 0-0.465 0.094-0.7 0.279-0.7 0.301 0 0.521-0.419 0.521-0.995 0-0.199 0.135-0.414 0.3-0.477 0.199-0.077 0.3-0.39 0.3-0.928s0.101-0.851 0.3-0.928c0.169-0.065 0.3-0.362 0.3-0.683 0-0.313 0.142-0.648 0.314-0.745 0.173-0.097 0.365-0.55 0.426-1.007 0.062-0.457 0.235-0.933 0.386-1.059 0.151-0.125 0.274-0.579 0.274-1.009 0-0.51 0.104-0.822 0.3-0.897 0.203-0.078 0.3-0.396 0.3-0.983 0-0.606 0.102-0.926 0.336-1.057 0.239-0.134 0.361-0.54 0.424-1.41 0.062-0.863 0.169-1.222 0.364-1.222 0.206 0 0.276-0.328 0.276-1.3 0-1.022 0.064-1.3 0.3-1.3s0.3-0.278 0.3-1.3c0-0.97 0.07-1.3 0.275-1.3 0.328 0 0.525-0.862 0.525-2.301 0-0.689 0.103-1.136 0.3-1.299 0.225-0.187 0.3-0.69 0.3-2.024 0-1.445 0.056-1.776 0.3-1.776 0.249 0 0.3-0.389 0.3-2.3 0-1.4 0.078-2.3 0.2-2.3 0.131 0 0.2-4.1 0.2-11.9s-0.069-11.9-0.2-11.9c-0.121 0-0.2-0.859-0.2-2.176 0-1.689-0.067-2.231-0.3-2.424-0.223-0.185-0.3-0.677-0.3-1.908 0-1.137-0.078-1.685-0.247-1.741-0.157-0.052-0.288-0.714-0.363-1.838-0.09-1.355-0.193-1.799-0.453-1.944-0.262-0.147-0.337-0.478-0.337-1.479 0-1.013-0.064-1.29-0.3-1.29-0.233 0-0.3-0.266-0.3-1.19 0-0.794-0.091-1.243-0.273-1.35-0.152-0.089-0.316-0.629-0.371-1.217-0.06-0.637-0.225-1.153-0.418-1.3-0.188-0.143-0.344-0.612-0.379-1.143-0.039-0.59-0.145-0.883-0.309-0.85-0.17 0.034-0.25-0.234-0.25-0.836 0-0.52-0.124-1.009-0.3-1.185-0.165-0.165-0.306-0.509-0.314-0.765-0.015-0.481-0.345-1.418-0.375-1.064-0.04 0.466-0.405-0.455-0.408-1.029-2e-3 -0.372-0.125-0.675-0.303-0.743-0.187-0.072-0.3-0.377-0.3-0.807 0-0.381-0.135-0.827-0.3-0.992s-0.3-0.434-0.3-0.598c0-0.516-0.232-0.931-0.521-0.931-0.185 0-0.279-0.235-0.279-0.7 0-0.489-0.09-0.7-0.3-0.7-0.208 0-0.3-0.21-0.3-0.686 0-0.377-0.135-0.82-0.3-0.985s-0.3-0.442-0.3-0.615-0.18-0.494-0.4-0.714-0.4-0.628-0.4-0.906c0-0.279-0.135-0.558-0.3-0.622-0.165-0.063-0.3-0.279-0.3-0.479s-0.124-0.488-0.276-0.64c-0.151-0.152-0.338-0.563-0.416-0.914-0.077-0.353-0.267-0.639-0.424-0.639-0.156 0-0.284-0.174-0.284-0.386s-0.135-0.52-0.3-0.685-0.3-0.43-0.3-0.588-0.177-0.512-0.393-0.787c-0.217-0.275-0.333-0.561-0.259-0.635s-0.064-0.187-0.307-0.25c-0.324-0.085-0.441-0.266-0.441-0.682 0-0.312-0.115-0.639-0.255-0.727s-0.478-0.588-0.75-1.11-0.607-0.95-0.745-0.95c-0.137 0-0.25-0.228-0.25-0.506 0-0.279-0.135-0.558-0.3-0.622-0.165-0.063-0.3-0.285-0.3-0.493 0-0.209-0.128-0.379-0.284-0.379s-0.344-0.27-0.416-0.6-0.26-0.6-0.416-0.6-0.284-0.18-0.284-0.4c0-0.222-0.133-0.4-0.3-0.4-0.165 0-0.3-0.166-0.3-0.369 0-0.204-0.18-0.577-0.4-0.831s-0.4-0.537-0.4-0.631c0-0.093-0.125-0.169-0.277-0.169s-0.326-0.189-0.386-0.42c-0.062-0.238-0.205-0.362-0.328-0.285-0.121 0.074-0.206 0.061-0.19-0.03 0.107-0.615-0.066-1.115-0.417-1.206-0.219-0.058-0.344-0.19-0.28-0.295 0.065-0.105-0.071-0.24-0.302-0.301-0.239-0.062-0.42-0.272-0.42-0.486 0-0.207-0.135-0.377-0.3-0.377s-0.3-0.162-0.3-0.36c0-0.197-0.312-0.67-0.694-1.05-0.381-0.379-0.696-0.802-0.7-0.94-3e-3 -0.137-0.141-0.25-0.306-0.25s-0.3-0.135-0.3-0.3-0.135-0.3-0.3-0.3-0.3-0.102-0.3-0.227-0.203-0.431-0.45-0.681c-0.671-0.678-0.95-1.052-0.95-1.277 0-0.11-0.18-0.297-0.4-0.415s-0.4-0.346-0.4-0.507-0.135-0.293-0.3-0.293-0.3-0.135-0.3-0.3-0.135-0.3-0.3-0.3-0.3-0.086-0.3-0.191c0-0.248-0.961-1.209-1.209-1.209-0.105 0-0.191-0.135-0.191-0.3s-0.135-0.3-0.3-0.3-0.302-0.112-0.303-0.25c-5e-3 -0.305-0.868-1.15-1.175-1.15-0.122 0-0.222-0.135-0.222-0.3s-0.135-0.3-0.3-0.3-0.3-0.135-0.3-0.3-0.129-0.3-0.287-0.3c-0.157 0-0.343-0.18-0.413-0.4s-0.256-0.4-0.413-0.4c-0.158 0-0.287-0.135-0.287-0.3s-0.135-0.3-0.3-0.3-0.3-0.135-0.3-0.3-0.113-0.3-0.251-0.3-0.514-0.315-0.835-0.7-0.745-0.7-0.942-0.7-0.454-0.18-0.572-0.4-0.346-0.4-0.507-0.4-0.293-0.135-0.293-0.3-0.135-0.3-0.3-0.3-0.3-0.135-0.3-0.3-0.115-0.3-0.255-0.3c-0.141 0-0.481-0.247-0.756-0.55-0.662-0.729-1.698-1.45-2.081-1.45-0.169 0-0.31-0.112-0.311-0.25-5e-3 -0.294-0.863-1.15-1.154-1.15-0.11 0-0.252-0.136-0.316-0.302s-0.186-0.29-0.271-0.276c-0.495 0.081-0.822-0.07-0.914-0.422-0.057-0.22-0.238-0.4-0.402-0.4-0.163 0-0.349-0.135-0.412-0.3-0.064-0.165-0.301-0.3-0.528-0.3s-0.464-0.135-0.528-0.3c-0.063-0.165-0.236-0.3-0.383-0.3-0.148 0-0.341-0.113-0.429-0.25-0.191-0.299-1.219-1.025-1.71-1.207-0.192-0.072-0.35-0.223-0.35-0.337 0-0.113-0.27-0.206-0.6-0.206-0.387 0-0.6-0.101-0.6-0.287 0-0.157-0.18-0.343-0.4-0.413s-0.4-0.256-0.4-0.413c0-0.186-0.213-0.287-0.6-0.287-0.4 0-0.6-0.1-0.6-0.3 0-0.167-0.178-0.3-0.4-0.3-0.22 0-0.4-0.092-0.4-0.204 0-0.113-0.247-0.313-0.55-0.446-0.302-0.133-0.622-0.356-0.71-0.496s-0.425-0.254-0.75-0.254c-0.391 0-0.59-0.101-0.59-0.3 0-0.194-0.195-0.3-0.552-0.3-0.335 0-0.65-0.157-0.802-0.4-0.137-0.22-0.345-0.4-0.462-0.4s-0.348-0.135-0.513-0.3-0.473-0.3-0.685-0.3-0.386-0.083-0.386-0.184-0.276-0.245-0.614-0.319c-0.337-0.074-0.658-0.253-0.714-0.398s-0.33-0.32-0.611-0.391c-0.28-0.07-0.64-0.258-0.799-0.418-0.16-0.159-0.516-0.29-0.791-0.29s-0.635-0.135-0.8-0.3-0.541-0.3-0.837-0.3c-0.321 0-0.638-0.161-0.788-0.4-0.137-0.22-0.464-0.4-0.726-0.4-0.263 0-0.529-0.135-0.592-0.3-0.066-0.172-0.365-0.3-0.7-0.3-0.336 0-0.634-0.128-0.7-0.3-0.079-0.204-0.398-0.3-0.998-0.3-0.677 0-0.905-0.083-0.976-0.354-0.057-0.217-0.312-0.372-0.662-0.401-0.313-0.026-0.639-0.159-0.724-0.296-0.167-0.271-0.23-0.287-1.268-0.324-0.478-0.017-0.7-0.12-0.7-0.325 0-0.22-0.228-0.3-0.856-0.3-0.608 0-0.954-0.116-1.198-0.4-0.218-0.255-0.59-0.4-1.023-0.4-0.42 0-0.724-0.115-0.795-0.3-0.08-0.207-0.402-0.3-1.036-0.3-0.552 0-1.041-0.12-1.221-0.3-0.165-0.165-0.647-0.3-1.071-0.3-0.451 0-0.909-0.137-1.102-0.331-0.182-0.182-0.772-0.373-1.311-0.425s-1.082-0.218-1.208-0.369c-0.156-0.188-0.696-0.275-1.703-0.275-1.179 0-1.476-0.06-1.476-0.3 0-0.236-0.278-0.3-1.306-0.3-0.904 0-1.338-0.082-1.409-0.267-0.121-0.314-0.115-0.313-2.235-0.461-0.908-0.063-1.65-0.188-1.65-0.277 0-0.09-0.27-0.223-0.6-0.295l-0.6-0.132v-26.259-26.259l0.6-0.12c0.352-0.07 0.6-0.246 0.6-0.425 0-0.206 0.196-0.305 0.606-0.305 0.355 0 0.654-0.125 0.722-0.3 0.063-0.165 0.333-0.3 0.6-0.3 0.266 0 0.536-0.135 0.6-0.3 0.063-0.165 0.226-0.3 0.362-0.3 0.137 0 0.411-0.18 0.61-0.4s0.528-0.4 0.731-0.4 0.369-0.135 0.369-0.3c0-0.167 0.178-0.3 0.4-0.3 0.22 0 0.4-0.128 0.4-0.284s0.27-0.344 0.6-0.416 0.6-0.26 0.6-0.416 0.18-0.284 0.4-0.284c0.222 0 0.4-0.133 0.4-0.3 0-0.165 0.135-0.3 0.3-0.3s0.3-0.129 0.3-0.287c0-0.157 0.18-0.343 0.4-0.413s0.4-0.256 0.4-0.413c0-0.158 0.135-0.287 0.3-0.287s0.3-0.135 0.3-0.3 0.09-0.3 0.2-0.3c0.26 0 1.8-1.54 1.8-1.8 0-0.11 0.135-0.2 0.3-0.2s0.3-0.135 0.3-0.3 0.129-0.3 0.287-0.3c0.157 0 0.343-0.18 0.413-0.4s0.256-0.4 0.413-0.4c0.158 0 0.287-0.135 0.287-0.3s0.135-0.3 0.3-0.3c0.167 0 0.3-0.178 0.3-0.4 0-0.22 0.128-0.4 0.284-0.4s0.344-0.27 0.416-0.6 0.26-0.6 0.416-0.6 0.284-0.18 0.284-0.4c0-0.222 0.133-0.4 0.3-0.4 0.257 0 0.411-0.499 0.324-1.05-0.013-0.082 0.074-0.127 0.195-0.1 0.12 0.028 0.322-0.13 0.45-0.35 0.127-0.22 0.314-0.46 0.416-0.534 0.102-0.073 0.217-0.341 0.256-0.595s0.203-0.536 0.365-0.626c0.162-0.091 0.294-0.43 0.294-0.755 0-0.371 0.103-0.59 0.279-0.59 0.305 0 0.521-0.42 0.521-1.016 0-0.211 0.135-0.384 0.3-0.384 0.197 0 0.3-0.197 0.3-0.576 0-0.316 0.135-0.687 0.3-0.824 0.172-0.143 0.3-0.579 0.3-1.024 0-0.527 0.089-0.776 0.277-0.776 0.312 0 0.516-0.599 0.52-1.529 2e-3 -0.372 0.125-0.675 0.303-0.743 0.221-0.085 0.3-0.434 0.3-1.322 0-0.939 0.066-1.206 0.3-1.206 0.242 0 0.3-0.31 0.3-1.59 0-1.306 0.062-1.625 0.35-1.786 0.32-0.179 0.35-0.672 0.35-5.824s-0.03-5.645-0.35-5.824c-0.287-0.161-0.35-0.479-0.35-1.765 0-1.209-0.069-1.595-0.3-1.683-0.218-0.084-0.3-0.426-0.3-1.25 0-0.739-0.098-1.211-0.283-1.356-0.156-0.122-0.324-0.607-0.374-1.078-0.051-0.471-0.238-1.018-0.417-1.216-0.18-0.198-0.326-0.648-0.326-1 0-0.385-0.12-0.687-0.3-0.756-0.172-0.066-0.3-0.364-0.3-0.7 0-0.335-0.128-0.634-0.3-0.7-0.165-0.063-0.3-0.316-0.3-0.563 0-0.246-0.18-0.655-0.4-0.909s-0.4-0.627-0.4-0.831c0-0.203-0.135-0.369-0.3-0.369-0.2 0-0.3-0.2-0.3-0.6 0-0.33-0.095-0.6-0.21-0.6-0.116 0-0.305-0.27-0.42-0.6s-0.293-0.6-0.395-0.6c-0.101 0-0.27-0.225-0.375-0.5s-0.282-0.5-0.395-0.5-0.205-0.178-0.205-0.396-0.315-0.721-0.7-1.118c-0.385-0.396-0.7-0.803-0.7-0.903 0-0.101-0.135-0.183-0.3-0.183s-0.3-0.131-0.3-0.29c0-0.16-0.157-0.382-0.35-0.494-0.192-0.112-0.279-0.207-0.192-0.21s-0.07-0.253-0.35-0.554c-0.279-0.301-0.508-0.661-0.508-0.8s-0.135-0.252-0.3-0.252-0.3-0.125-0.3-0.277-0.18-0.323-0.4-0.381c-0.22-0.057-0.4-0.248-0.4-0.423 0-0.176-0.135-0.319-0.3-0.319s-0.3-0.135-0.3-0.3-0.093-0.3-0.207-0.3c-0.113 0-0.451-0.247-0.75-0.55-0.299-0.302-0.79-0.661-1.093-0.796-0.302-0.135-0.55-0.337-0.55-0.45 0-0.112-0.113-0.204-0.251-0.204s-0.514-0.315-0.835-0.7-0.692-0.7-0.824-0.7c-0.133 0-0.353-0.135-0.49-0.3s-0.418-0.3-0.624-0.3c-0.207 0-0.376-0.137-0.376-0.305 0-0.177-0.246-0.354-0.587-0.422-0.323-0.065-0.635-0.243-0.694-0.395-0.059-0.153-0.235-0.278-0.391-0.278-0.157 0-0.337-0.135-0.4-0.3-0.068-0.175-0.367-0.3-0.722-0.3-0.405 0-0.606-0.099-0.606-0.3 0-0.165-0.168-0.3-0.373-0.3s-0.602-0.18-0.882-0.4c-0.279-0.22-0.687-0.4-0.905-0.4-0.219 0-0.449-0.135-0.512-0.3-0.079-0.206-0.401-0.3-1.022-0.3-0.663 0-0.906-0.079-0.906-0.293 0-0.201-0.315-0.335-1-0.426-0.649-0.086-1-0.229-1-0.407 0-0.195-0.282-0.274-0.976-0.274-0.623 0-1.065-0.108-1.224-0.3-0.18-0.217-0.657-0.3-1.724-0.3-1.119 0-1.476-0.067-1.476-0.275 0-0.71-13.79-0.828-14.6-0.125-0.376 0.326-0.748 0.4-2.009 0.4-1.192 0-1.575 0.069-1.663 0.3-0.082 0.212-0.412 0.3-1.122 0.3-0.761 0-1.006 0.073-1.006 0.3 0 0.193-0.196 0.301-0.55 0.303-0.856 4e-3 -1.45 0.217-1.45 0.52 0 0.182-0.235 0.277-0.686 0.277-0.377 0-0.82 0.135-0.985 0.3s-0.48 0.3-0.7 0.3-0.535 0.135-0.7 0.3-0.442 0.3-0.615 0.3-0.481 0.167-0.685 0.371-0.609 0.431-0.9 0.504-0.529 0.221-0.529 0.329-0.16 0.196-0.356 0.196c-0.195 0-0.509 0.18-0.698 0.4-0.188 0.22-0.523 0.4-0.744 0.4-0.224 0-0.402 0.133-0.402 0.3s-0.178 0.3-0.4 0.3c-0.22 0-0.4 0.128-0.4 0.284s-0.262 0.342-0.583 0.412c-0.321 0.071-0.633 0.258-0.694 0.416s-0.248 0.288-0.417 0.288c-0.168 0-0.306 0.135-0.306 0.3s-0.135 0.3-0.3 0.3-0.3 0.135-0.3 0.3-0.112 0.303-0.25 0.306c-0.138 4e-3 -0.56 0.318-0.939 0.699-0.38 0.381-0.853 0.745-1.053 0.808-0.2 0.064-0.312 0.199-0.249 0.301s0.032 0.186-0.068 0.186c-0.279 0-1.25 0.956-1.799 1.772-0.27 0.4-0.615 0.8-0.766 0.888-0.152 0.088-0.276 0.29-0.276 0.45 0 0.159-0.135 0.29-0.3 0.29s-0.3 0.135-0.3 0.3-0.135 0.3-0.3 0.3-0.3 0.076-0.3 0.169c0 0.094-0.18 0.377-0.4 0.631s-0.4 0.627-0.4 0.831c0 0.203-0.135 0.369-0.3 0.369-0.167 0-0.3 0.178-0.3 0.4 0 0.22-0.128 0.4-0.284 0.4s-0.344 0.27-0.416 0.6-0.26 0.6-0.416 0.6-0.284 0.17-0.284 0.379c0 0.208-0.135 0.43-0.3 0.493-0.165 0.064-0.3 0.334-0.3 0.6 0 0.267-0.127 0.534-0.281 0.593-0.155 0.059-0.34 0.377-0.412 0.705s-0.24 0.638-0.374 0.69c-0.133 0.051-0.262 0.334-0.286 0.629-0.025 0.296-0.18 0.673-0.346 0.838-0.165 0.166-0.301 0.61-0.301 0.987 0 0.453-0.095 0.686-0.279 0.686-0.312 0-0.518 0.416-0.527 1.066-4e-3 0.239-0.139 0.609-0.3 0.822-0.162 0.214-0.297 0.664-0.3 1-4e-3 0.337-0.139 0.787-0.3 1-0.18 0.237-0.294 0.837-0.294 1.54 0 0.882-0.081 1.197-0.344 1.345-0.285 0.159-0.358 0.569-0.421 2.36-0.054 1.527-0.163 2.264-0.369 2.497-0.378 0.427-0.315 7.294 0.069 7.53 0.143 0.089 0.273 0.926 0.333 2.143 0.117 2.396 0.127 2.452 0.465 2.582 0.184 0.071 0.267 0.501 0.267 1.387 0 0.958 0.076 1.315 0.3 1.4 0.204 0.079 0.3 0.398 0.3 1 0 0.561 0.099 0.923 0.271 0.989 0.15 0.058 0.323 0.488 0.386 0.956s0.256 0.93 0.429 1.027c0.172 0.097 0.314 0.435 0.314 0.752 0 0.316 0.135 0.71 0.3 0.875s0.3 0.48 0.3 0.7 0.135 0.535 0.3 0.7 0.3 0.439 0.3 0.608 0.18 0.403 0.4 0.521c0.234 0.125 0.4 0.419 0.4 0.707 0 0.305 0.114 0.493 0.3 0.493 0.183 0 0.3 0.186 0.3 0.476 0 0.261 0.135 0.587 0.3 0.724s0.3 0.359 0.3 0.493c0 0.135 0.18 0.408 0.4 0.607s0.4 0.528 0.4 0.731 0.135 0.369 0.3 0.369 0.3 0.135 0.3 0.3 0.128 0.3 0.284 0.3 0.345 0.276 0.419 0.614c0.074 0.337 0.261 0.662 0.416 0.721 0.154 0.059 0.281 0.233 0.281 0.386 0 0.154 0.135 0.279 0.3 0.279s0.3 0.085 0.3 0.19c0 0.275 0.906 1.21 1.173 1.21 0.125 0 0.227 0.135 0.227 0.3s0.135 0.3 0.3 0.3 0.3 0.086 0.3 0.191c0 0.248 0.961 1.209 1.209 1.209 0.105 0 0.191 0.135 0.191 0.3s0.135 0.3 0.3 0.3 0.3 0.135 0.3 0.3 0.079 0.3 0.175 0.3 0.519 0.315 0.939 0.7 0.884 0.7 1.031 0.7 0.318 0.132 0.38 0.292c0.061 0.161 0.284 0.347 0.493 0.414 0.21 0.066 0.382 0.25 0.382 0.407 0 0.158 0.124 0.287 0.276 0.287 0.151 0 0.387 0.135 0.524 0.3s0.463 0.3 0.724 0.3c0.294 0 0.476 0.117 0.476 0.306 0 0.169 0.158 0.366 0.35 0.439 0.193 0.073 0.469 0.25 0.614 0.394 0.146 0.143 0.427 0.261 0.626 0.261 0.198 0 0.473 0.135 0.61 0.3s0.463 0.3 0.724 0.3c0.278 0 0.476 0.118 0.476 0.284 0 0.156 0.27 0.344 0.6 0.416l0.6 0.132v26.284c0 25.579-0.01 26.284-0.376 26.284-0.206 0-0.478 0.124-0.604 0.276-0.152 0.183-0.837 0.305-2.05 0.363-1.407 0.067-1.877 0.163-2.068 0.424-0.188 0.257-0.559 0.337-1.574 0.337-1.047 0-1.328 0.063-1.328 0.3 0 0.24-0.299 0.3-1.49 0.3-1.05 0-1.537 0.081-1.65 0.274-0.095 0.163-0.639 0.312-1.34 0.369-0.782 0.063-1.262 0.206-1.422 0.426-0.165 0.226-0.537 0.331-1.17 0.331-0.692 0-0.928 0.076-0.928 0.3 0 0.229-0.253 0.3-1.076 0.3-0.666 0-1.161 0.104-1.302 0.274-0.126 0.151-0.606 0.325-1.068 0.387s-0.943 0.253-1.069 0.426c-0.126 0.172-0.505 0.313-0.843 0.313-0.337 0-0.748 0.135-0.913 0.3s-0.612 0.3-0.993 0.3c-0.432 0-0.737 0.113-0.808 0.3-0.064 0.165-0.321 0.301-0.572 0.303-0.769 4e-3 -1.356 0.23-1.356 0.52 0 0.182-0.234 0.277-0.679 0.277-0.418 0-0.722 0.115-0.793 0.3-0.067 0.173-0.366 0.3-0.707 0.3-0.326 0-0.727 0.135-0.892 0.3s-0.434 0.3-0.598 0.3c-0.516 0-0.931 0.232-0.931 0.521 0 0.185-0.235 0.279-0.7 0.279-0.489 0-0.7 0.09-0.7 0.3 0 0.208-0.21 0.3-0.686 0.3-0.377 0-0.82 0.135-0.985 0.3s-0.383 0.3-0.484 0.3-0.398 0.186-0.66 0.413c-0.331 0.287-0.501 0.338-0.558 0.167-0.149-0.446-1.118-1.167-1.577-1.174-0.264-3e-3 -0.45-0.13-0.45-0.306 0-0.165-0.135-0.3-0.3-0.3s-0.3-0.129-0.3-0.287c0-0.157-0.172-0.341-0.382-0.407-0.209-0.067-0.432-0.253-0.493-0.414-0.062-0.16-0.298-0.292-0.525-0.292s-0.464-0.135-0.528-0.3c-0.063-0.165-0.198-0.3-0.3-0.3-0.101 0-0.473-0.315-0.827-0.7-0.37-0.403-0.833-0.7-1.094-0.7-0.268 0-0.451-0.122-0.451-0.3 0-0.167-0.178-0.3-0.4-0.3-0.22 0-0.402-0.112-0.403-0.25-6e-3 -0.396-0.911-1.15-1.381-1.15-0.236 0-0.48-0.135-0.544-0.3-0.063-0.165-0.23-0.3-0.37-0.3s-0.302-0.18-0.36-0.4c-0.057-0.22-0.248-0.4-0.423-0.4-0.176 0-0.319-0.135-0.319-0.3 0-0.167-0.178-0.3-0.4-0.3-0.22 0-0.4-0.084-0.4-0.187 0-0.102-0.192-0.247-0.426-0.321-0.235-0.075-0.706-0.441-1.049-0.814-0.342-0.373-0.78-0.678-0.974-0.678-0.193 0-0.351-0.135-0.351-0.3 0-0.187-0.189-0.3-0.5-0.3-0.275 0-0.502-0.112-0.503-0.25-5e-3 -0.294-0.863-1.15-1.154-1.15-0.11 0-0.252-0.135-0.315-0.3-0.064-0.165-0.343-0.3-0.622-0.3-0.278 0-0.506-0.102-0.506-0.227 0-0.256-0.93-1.173-1.189-1.173-0.092 0-0.22-0.135-0.283-0.3-0.064-0.165-0.295-0.3-0.515-0.3-0.219 0-0.495-0.18-0.613-0.4s-0.346-0.4-0.507-0.4-0.293-0.135-0.293-0.3-0.135-0.3-0.3-0.3-0.3-0.081-0.3-0.18c0-0.1-0.271-0.275-0.603-0.391-0.331-0.115-0.656-0.349-0.721-0.52-0.065-0.17-0.235-0.309-0.376-0.309s-0.309-0.135-0.372-0.3c-0.064-0.165-0.244-0.3-0.4-0.3-0.157 0-0.337-0.135-0.4-0.3-0.064-0.165-0.207-0.3-0.319-0.3-0.225 0-0.891-0.506-1.382-1.05-0.174-0.193-0.431-0.35-0.571-0.35-0.141 0-0.256-0.124-0.256-0.275s-0.276-0.33-0.613-0.398c-0.338-0.067-0.559-0.211-0.492-0.319s-0.107-0.254-0.387-0.324c-0.279-0.07-0.508-0.253-0.508-0.406s-0.125-0.278-0.279-0.278c-0.153 0-0.33-0.135-0.393-0.3-0.064-0.165-0.253-0.3-0.422-0.3-0.168 0-0.306-0.095-0.306-0.21 0-0.116-0.27-0.305-0.6-0.42s-0.6-0.335-0.6-0.49c0-0.154-0.138-0.28-0.306-0.28-0.169 0-0.358-0.135-0.422-0.3-0.063-0.165-0.29-0.3-0.505-0.3s-0.334-0.092-0.264-0.204c0.069-0.112-0.196-0.339-0.589-0.503s-0.714-0.387-0.714-0.496c0-0.108-0.135-0.197-0.3-0.197s-0.3-0.135-0.3-0.3-0.138-0.3-0.306-0.3c-0.169 0-0.356-0.13-0.417-0.288s-0.373-0.345-0.694-0.416c-0.321-0.07-0.583-0.256-0.583-0.412s-0.135-0.284-0.3-0.284-0.3-0.135-0.3-0.3c0-0.167-0.178-0.3-0.4-0.3s-0.4-0.133-0.4-0.3c0-0.165-0.135-0.3-0.3-0.3s-0.48-0.18-0.7-0.4-0.54-0.4-0.712-0.4c-0.171 0-0.252-0.096-0.18-0.213 0.073-0.118-0.057-0.263-0.288-0.324-0.231-0.06-0.42-0.234-0.42-0.386s-0.121-0.277-0.269-0.277-0.432-0.18-0.631-0.4-0.528-0.4-0.731-0.4-0.369-0.135-0.369-0.3-0.112-0.302-0.25-0.306c-0.137-3e-3 -0.515-0.275-0.839-0.606-0.325-0.33-0.797-0.652-1.05-0.716-0.254-0.063-0.461-0.241-0.461-0.394s-0.18-0.278-0.4-0.278c-0.222 0-0.4-0.133-0.4-0.3 0-0.165-0.115-0.3-0.256-0.3-0.14 0-0.409-0.18-0.598-0.4-0.188-0.22-0.468-0.4-0.623-0.4-0.154 0-0.332-0.135-0.395-0.3-0.064-0.165-0.253-0.3-0.422-0.3-0.168 0-0.306-0.129-0.306-0.287 0-0.157-0.18-0.343-0.4-0.413s-0.4-0.204-0.4-0.298c0-0.093-0.27-0.23-0.6-0.302s-0.6-0.26-0.6-0.416-0.135-0.284-0.3-0.284-0.304-0.112-0.308-0.25c-0.01-0.291-1.285-1.15-1.706-1.15-0.157 0-0.286-0.135-0.286-0.3s-0.082-0.3-0.183-0.3c-0.1 0-0.507-0.315-0.903-0.7-0.397-0.385-0.9-0.7-1.118-0.7-0.219 0-0.396-0.134-0.396-0.3 0-0.167-0.178-0.3-0.4-0.3-0.22 0-0.4-0.094-0.4-0.21 0-0.356-1.075-1.177-1.55-1.184-0.264-3e-3 -0.45-0.13-0.45-0.306 0-0.165-0.135-0.3-0.3-0.3s-0.3-0.135-0.3-0.3-0.132-0.3-0.293-0.3-0.389-0.18-0.507-0.4c-0.125-0.234-0.419-0.4-0.707-0.4-0.305 0-0.493-0.114-0.493-0.3 0-0.165-0.093-0.3-0.206-0.3-0.114 0-0.495-0.315-0.849-0.7-0.353-0.385-0.744-0.7-0.869-0.7s-0.339-0.135-0.476-0.3-0.418-0.3-0.624-0.3c-0.207 0-0.378-0.112-0.379-0.25-5e-3 -0.358-0.892-1.15-1.287-1.15-0.183 0-0.277-0.091-0.209-0.202 0.07-0.112-0.14-0.256-0.47-0.322-0.351-0.07-0.636-0.274-0.695-0.497-0.054-0.209-0.242-0.379-0.417-0.379-0.176 0-0.319-0.135-0.319-0.3s-0.125-0.3-0.279-0.3c-0.153 0-0.33-0.135-0.393-0.3-0.064-0.165-0.333-0.3-0.598-0.3-0.315 0-0.52-0.139-0.588-0.4-0.057-0.22-0.248-0.4-0.423-0.4-0.176 0-0.319-0.135-0.319-0.3s-0.138-0.3-0.306-0.3c-0.169 0-0.358-0.135-0.422-0.3-0.065-0.171-0.364-0.3-0.693-0.3-0.328 0-0.58-0.108-0.582-0.25-5e-3 -0.294-0.863-1.15-1.154-1.15-0.11 0-0.252-0.135-0.315-0.3-0.064-0.165-0.343-0.3-0.622-0.3-0.278 0-0.506-0.086-0.506-0.191 0-0.236-0.956-1.209-1.188-1.209-0.093 0-0.221-0.135-0.284-0.3-0.064-0.165-0.295-0.3-0.515-0.3-0.219 0-0.495-0.18-0.613-0.4s-0.346-0.4-0.507-0.4-0.293-0.135-0.293-0.3-0.135-0.3-0.3-0.3-0.3-0.095-0.3-0.21c0-0.116-0.263-0.302-0.584-0.414s-0.633-0.333-0.694-0.49c-0.06-0.157-0.238-0.286-0.394-0.286-0.157 0-0.337-0.135-0.4-0.3-0.064-0.165-0.253-0.3-0.422-0.3-0.168 0-0.306-0.135-0.306-0.3s-0.135-0.3-0.3-0.3-0.502-0.184-0.75-0.409c-0.247-0.225-0.593-0.54-0.767-0.7s-0.422-0.291-0.55-0.291-0.233-0.135-0.233-0.3c0-0.186-0.188-0.3-0.493-0.3-0.288 0-0.582-0.166-0.707-0.4-0.118-0.22-0.346-0.4-0.507-0.4s-0.293-0.135-0.293-0.3-0.125-0.3-0.279-0.3c-0.153 0-0.33-0.135-0.393-0.3-0.064-0.165-0.253-0.3-0.422-0.3-0.168 0-0.306-0.095-0.306-0.21 0-0.116-0.27-0.305-0.6-0.42s-0.6-0.335-0.6-0.49c0-0.154-0.138-0.28-0.306-0.28-0.169 0-0.358-0.135-0.422-0.3-0.063-0.165-0.199-0.3-0.302-0.3s-0.38-0.18-0.616-0.4-0.538-0.4-0.67-0.4c-0.133 0-0.293-0.135-0.356-0.3-0.064-0.165-0.253-0.3-0.422-0.3-0.168 0-0.306-0.135-0.306-0.3 0-0.167-0.178-0.3-0.4-0.3-0.22 0-0.378-0.105-0.35-0.233 0.027-0.129-0.242-0.322-0.6-0.429-0.358-0.108-0.65-0.318-0.65-0.467s-0.135-0.271-0.3-0.271-0.3-0.135-0.3-0.3-0.135-0.3-0.3-0.3-0.48-0.157-0.7-0.35c-0.22-0.192-0.58-0.507-0.8-0.7-0.22-0.192-0.48-0.35-0.579-0.35-0.098 0-0.23-0.135-0.293-0.3-0.064-0.165-0.253-0.3-0.422-0.3-0.168 0-0.306-0.135-0.306-0.3s-0.135-0.3-0.3-0.3-0.48-0.18-0.7-0.4-0.535-0.4-0.7-0.4-0.3-0.135-0.3-0.3-0.084-0.3-0.188-0.3c-0.103 0-0.485-0.273-0.85-0.607-0.364-0.334-0.865-0.659-1.112-0.722s-0.45-0.24-0.45-0.393-0.112-0.28-0.25-0.281c-0.137-2e-3 -0.442-0.206-0.676-0.454-0.235-0.247-0.685-0.583-1-0.746-0.316-0.163-0.646-0.409-0.734-0.547-0.088-0.137-0.29-0.25-0.45-0.25-0.159 0-0.29-0.135-0.29-0.3s-0.076-0.3-0.169-0.3c-0.094 0-0.377-0.18-0.631-0.4s-0.627-0.4-0.831-0.4c-0.203 0-0.369-0.135-0.369-0.3s-0.135-0.3-0.3-0.3-0.304-0.112-0.308-0.25c-0.01-0.291-1.285-1.15-1.706-1.15-0.157 0-0.286-0.135-0.286-0.3 0-0.17-0.179-0.3-0.412-0.3-0.226 0-0.362-0.08-0.302-0.177 0.136-0.221-0.374-0.669-0.554-0.488-0.073 0.072-0.132-0.021-0.132-0.207 0-0.216-0.217-0.381-0.6-0.458-0.33-0.066-0.6-0.244-0.6-0.395s-0.17-0.275-0.377-0.275c-0.22 0-0.424-0.183-0.492-0.441-0.063-0.243-0.175-0.382-0.248-0.309s-0.279-0.047-0.458-0.268c-0.179-0.22-0.521-0.415-0.761-0.433-0.24-0.017-0.388-0.109-0.33-0.204s-0.083-0.221-0.314-0.282c-0.231-0.06-0.42-0.234-0.42-0.386s-0.132-0.277-0.293-0.277-0.389-0.18-0.507-0.4-0.346-0.4-0.507-0.4-0.293-0.084-0.293-0.187c0-0.102-0.192-0.247-0.426-0.321-0.235-0.075-0.706-0.441-1.049-0.814-0.342-0.373-0.697-0.678-0.788-0.678s-0.301-0.135-0.466-0.3-0.473-0.3-0.685-0.3-0.388-0.112-0.389-0.25c-5e-3 -0.305-0.868-1.15-1.175-1.15-0.122 0-0.222-0.083-0.222-0.184s-0.261-0.242-0.58-0.312c-0.337-0.074-0.622-0.289-0.681-0.515-0.056-0.214-0.245-0.389-0.42-0.389-0.176 0-0.319-0.135-0.319-0.3 0-0.167-0.178-0.3-0.4-0.3-0.22 0-0.4-0.088-0.4-0.196s-0.216-0.251-0.481-0.317c-0.265-0.067-0.526-0.293-0.581-0.504s-0.244-0.383-0.419-0.383c-0.176 0-0.319-0.135-0.319-0.3s-0.138-0.3-0.306-0.3c-0.169 0-0.358-0.135-0.422-0.3-0.065-0.171-0.364-0.3-0.693-0.3-0.328 0-0.58-0.108-0.582-0.25-5e-3 -0.305-0.868-1.15-1.175-1.15-0.122 0-0.222-0.135-0.222-0.3 0-0.2-0.2-0.3-0.6-0.3-0.33 0-0.6-0.102-0.6-0.227 0-0.256-0.93-1.173-1.189-1.173-0.092 0-0.22-0.135-0.283-0.3-0.064-0.165-0.333-0.3-0.598-0.3-0.315 0-0.52-0.139-0.588-0.4-0.057-0.22-0.248-0.4-0.423-0.4-0.176 0-0.319-0.135-0.319-0.3s-0.125-0.3-0.279-0.3c-0.153 0-0.33-0.135-0.393-0.3-0.064-0.165-0.298-0.3-0.52-0.3-0.223 0-0.517-0.18-0.654-0.4-0.138-0.22-0.364-0.4-0.502-0.4-0.139 0-0.252-0.135-0.252-0.3 0-0.167-0.178-0.3-0.4-0.3s-0.4-0.133-0.4-0.3c0-0.165-0.134-0.3-0.298-0.3-0.307 0-0.923-0.438-1.475-1.05-0.174-0.192-0.431-0.35-0.571-0.35-0.159 0-0.256-0.265-0.256-0.7 0-0.465 0.094-0.7 0.279-0.7 0.375 0 0.521-0.445 0.521-1.592 0-0.573 0.111-1.052 0.277-1.189 0.201-0.167 0.286-0.835 0.31-2.446 0.022-1.503 0.122-2.355 0.31-2.645 0.362-0.559 0.319-5.192-0.052-5.563-0.165-0.165-0.245-1.004-0.245-2.584 0-1.806-0.063-2.362-0.277-2.444-0.188-0.073-0.302-0.564-0.357-1.544-0.06-1.058-0.172-1.503-0.424-1.687-0.244-0.179-0.342-0.538-0.342-1.257 0-0.71-0.088-1.04-0.3-1.121-0.194-0.075-0.3-0.385-0.3-0.877 0-0.419-0.124-0.94-0.274-1.156-0.151-0.217-0.339-0.687-0.416-1.045-0.079-0.362-0.268-0.65-0.426-0.65-0.189 0-0.284-0.225-0.284-0.676 0-0.371-0.135-0.787-0.3-0.924s-0.3-0.453-0.3-0.703-0.122-0.501-0.272-0.558c-0.149-0.058-0.327-0.382-0.395-0.722-0.073-0.366-0.247-0.617-0.428-0.617-0.206 0-0.305-0.196-0.305-0.6 0-0.4-0.1-0.6-0.3-0.6-0.192 0-0.302-0.197-0.306-0.55-4e-3 -0.356-0.251-0.793-0.7-1.24-0.39-0.389-0.694-0.892-0.694-1.15 0-0.276-0.12-0.46-0.3-0.46-0.165 0-0.3-0.135-0.3-0.3s-0.128-0.3-0.284-0.3-0.345-0.276-0.419-0.614c-0.074-0.337-0.261-0.662-0.416-0.721-0.154-0.059-0.281-0.233-0.281-0.386 0-0.154-0.135-0.279-0.3-0.279s-0.3-0.085-0.3-0.19c0-0.275-0.906-1.21-1.173-1.21-0.125 0-0.227-0.107-0.227-0.238 0-0.387-0.871-1.553-1.253-1.677-0.194-0.062-0.305-0.191-0.247-0.285s-0.077-0.229-0.3-0.3-0.354-0.213-0.29-0.316c0.063-0.103-0.048-0.248-0.247-0.322-0.2-0.075-0.481-0.299-0.624-0.499-0.144-0.2-0.394-0.363-0.557-0.363-0.162 0-0.346-0.135-0.41-0.3-0.063-0.165-0.24-0.3-0.393-0.3-0.154 0-0.279-0.102-0.279-0.227 0-0.256-0.93-1.173-1.189-1.173-0.092 0-0.22-0.135-0.283-0.3-0.064-0.165-0.295-0.3-0.515-0.3-0.219 0-0.495-0.18-0.613-0.4s-0.346-0.4-0.507-0.4-0.293-0.135-0.293-0.3-0.169-0.3-0.376-0.3c-0.206 0-0.487-0.135-0.624-0.3s-0.418-0.3-0.624-0.3c-0.207 0-0.376-0.137-0.376-0.305 0-0.181-0.251-0.355-0.617-0.428-0.34-0.068-0.664-0.246-0.722-0.395-0.057-0.15-0.236-0.272-0.397-0.272s-0.428-0.135-0.593-0.3-0.464-0.3-0.664-0.3-0.414-0.13-0.475-0.289-0.428-0.348-0.814-0.421c-0.387-0.072-0.808-0.257-0.935-0.411-0.128-0.153-0.481-0.279-0.786-0.279-0.308 0-0.605-0.133-0.669-0.3-0.073-0.19-0.38-0.3-0.834-0.3-0.428 0-0.668-0.081-0.594-0.2 0.17-0.275-0.759-0.6-1.713-0.6-0.566 0-0.787-0.084-0.787-0.3 0-0.226-0.242-0.3-0.979-0.3-0.685 0-1.013-0.09-1.093-0.3-0.086-0.224-0.445-0.3-1.422-0.3-0.737 0-1.306-0.087-1.306-0.2 0-0.13-3.067-0.2-8.8-0.2s-8.8 0.07-8.8 0.2m257.46 205.75c0.283 0.257 0.82 0.369 2.015 0.422 1.121 0.05 1.68 0.159 1.79 0.351 0.114 0.198 0.584 0.278 1.629 0.278 1.121 0 1.495 0.071 1.583 0.3 0.082 0.212 0.412 0.3 1.122 0.3 0.553 0 1.006 0.076 1.006 0.168 0 0.225 0.918 0.632 1.424 0.632 0.222 0 0.54 0.135 0.705 0.3s0.615 0.3 1 0.3 0.835 0.135 1 0.3 0.576 0.3 0.913 0.3c0.342 0 0.722 0.148 0.858 0.333 0.134 0.184 0.443 0.364 0.687 0.401 0.244 0.038 0.578 0.203 0.743 0.367 0.164 0.164 0.551 0.299 0.86 0.299 0.308 0 0.673 0.135 0.81 0.3s0.418 0.3 0.624 0.3c0.207 0 0.376 0.125 0.376 0.278s0.236 0.338 0.524 0.41c0.288 0.073 0.655 0.262 0.814 0.422 0.16 0.159 0.509 0.29 0.776 0.29 0.299 0 0.486 0.116 0.486 0.3 0 0.2 0.2 0.3 0.6 0.3 0.405 0 0.6 0.099 0.6 0.306 0 0.169 0.158 0.366 0.35 0.439 0.193 0.073 0.469 0.25 0.614 0.394 0.146 0.143 0.438 0.261 0.65 0.261s0.386 0.135 0.386 0.3c0 0.167 0.178 0.3 0.4 0.3 0.22 0 0.4 0.124 0.4 0.275s0.27 0.329 0.6 0.395c0.352 0.07 0.6 0.246 0.6 0.425 0 0.168 0.138 0.305 0.306 0.305 0.169 0 0.358 0.135 0.422 0.3 0.063 0.165 0.22 0.3 0.349 0.3s0.388 0.18 0.577 0.4c0.188 0.22 0.468 0.4 0.623 0.4 0.154 0 0.332 0.135 0.395 0.3 0.064 0.165 0.253 0.3 0.422 0.3 0.168 0 0.306 0.135 0.306 0.3s0.135 0.3 0.3 0.3 0.3 0.086 0.3 0.191c0 0.248 0.961 1.209 1.209 1.209 0.105 0 0.191 0.135 0.191 0.3s0.101 0.3 0.224 0.3c0.29 0 1.776 1.486 1.776 1.776 0 0.123 0.135 0.224 0.3 0.224s0.3 0.135 0.3 0.3 0.129 0.3 0.287 0.3c0.157 0 0.343 0.18 0.413 0.4s0.256 0.4 0.413 0.4c0.158 0 0.287 0.135 0.287 0.3s0.135 0.3 0.3 0.3 0.3 0.09 0.3 0.2c0 0.193 0.142 0.385 1 1.35 0.22 0.248 0.4 0.585 0.4 0.75s0.135 0.3 0.3 0.3 0.303 0.113 0.306 0.25c4e-3 0.138 0.319 0.561 0.7 0.94 0.382 0.38 0.694 0.855 0.694 1.057 0 0.201 0.135 0.417 0.3 0.481 0.165 0.063 0.3 0.24 0.3 0.393 0 0.154 0.135 0.279 0.3 0.279 0.167 0 0.3 0.178 0.3 0.4 0 0.22 0.18 0.58 0.4 0.8s0.4 0.49 0.4 0.6 0.135 0.2 0.3 0.2c0.201 0 0.3 0.201 0.3 0.606 0 0.355 0.125 0.654 0.3 0.722 0.165 0.063 0.3 0.286 0.3 0.495 0 0.21 0.18 0.535 0.4 0.723 0.22 0.189 0.4 0.551 0.4 0.805s0.135 0.513 0.3 0.577c0.172 0.066 0.3 0.364 0.3 0.7 0 0.324 0.128 0.634 0.288 0.695 0.158 0.061 0.345 0.373 0.416 0.694 0.07 0.321 0.256 0.583 0.412 0.583 0.191 0 0.284 0.229 0.284 0.7 0 0.489 0.09 0.7 0.3 0.7 0.215 0 0.3 0.22 0.3 0.776 0 0.445 0.128 0.881 0.3 1.024 0.165 0.137 0.3 0.462 0.3 0.723 0 0.26 0.18 0.586 0.4 0.723 0.299 0.187 0.4 0.467 0.4 1.108 0 0.579 0.098 0.896 0.3 0.974 0.209 0.08 0.3 0.406 0.3 1.079 0 0.591 0.116 1.081 0.3 1.264 0.165 0.165 0.301 0.554 0.303 0.865 4e-3 0.869 0.215 1.464 0.52 1.464 0.211 0 0.277 0.354 0.277 1.486 0 1.054 0.087 1.573 0.3 1.785 0.225 0.225 0.3 0.778 0.3 2.198 0 1.34 0.073 1.922 0.25 1.981 0.415 0.138 0.471 12.458 0.058 12.87-0.229 0.229-0.31 0.754-0.314 2.044-5e-3 1.209-0.096 1.854-0.3 2.124-0.186 0.246-0.294 0.85-0.294 1.65 0 0.941-0.07 1.262-0.277 1.262-0.3 0-0.516 0.592-0.52 1.426-2e-3 0.289-0.138 0.637-0.303 0.774-0.169 0.14-0.3 0.576-0.3 1s-0.131 0.86-0.3 1c-0.172 0.143-0.3 0.579-0.3 1.024 0 0.53-0.088 0.776-0.279 0.776-0.301 0-0.521 0.419-0.521 0.995 0 0.199-0.114 0.406-0.254 0.46s-0.275 0.34-0.299 0.636c-0.025 0.296-0.18 0.732-0.346 0.968-0.166 0.237-0.301 0.59-0.301 0.786 0 0.195-0.095 0.355-0.21 0.355-0.116 0-0.339 0.309-0.497 0.686-0.158 0.378-0.378 0.743-0.49 0.812s-0.203 0.345-0.203 0.614c0 0.3-0.115 0.488-0.3 0.488-0.2 0-0.3 0.2-0.3 0.6 0 0.387-0.101 0.6-0.287 0.6-0.157 0-0.349 0.198-0.426 0.441-0.077 0.242-0.263 0.563-0.413 0.714-0.151 0.15-0.274 0.393-0.274 0.538s-0.135 0.316-0.3 0.379c-0.165 0.064-0.3 0.239-0.3 0.391 0 0.151-0.18 0.438-0.4 0.637s-0.4 0.483-0.4 0.631-0.093 0.269-0.206 0.269c-0.114 0-0.266 0.157-0.339 0.35s-0.25 0.469-0.394 0.614c-0.143 0.146-0.261 0.438-0.261 0.65s-0.086 0.386-0.191 0.386c-0.248 0-1.209 0.961-1.209 1.209 0 0.105-0.135 0.191-0.3 0.191s-0.3 0.131-0.3 0.29c0 0.16-0.114 0.362-0.254 0.45s-0.363 0.408-0.496 0.71c-0.133 0.303-0.333 0.55-0.446 0.55-0.112 0-0.204 0.135-0.204 0.3s-0.135 0.3-0.3 0.3-0.3 0.083-0.3 0.184c0 0.246-1.563 1.816-1.808 1.816-0.105 0-0.192 0.086-0.192 0.191 0 0.248-0.961 1.209-1.209 1.209-0.105 0-0.191 0.135-0.191 0.3s-0.135 0.3-0.3 0.3-0.3 0.086-0.3 0.191c0 0.248-0.961 1.209-1.209 1.209-0.105 0-0.191 0.135-0.191 0.3s-0.135 0.3-0.3 0.3-0.3 0.135-0.3 0.3-0.143 0.3-0.319 0.3c-0.175 0-0.366 0.18-0.423 0.4-0.058 0.22-0.229 0.4-0.381 0.4s-0.277 0.135-0.277 0.3-0.117 0.3-0.259 0.3c-0.264 0-0.883 0.415-1.565 1.05-0.207 0.193-0.466 0.35-0.576 0.35s-0.2 0.135-0.2 0.3-0.138 0.3-0.306 0.3c-0.169 0-0.358 0.135-0.422 0.3-0.063 0.165-0.241 0.3-0.395 0.3-0.155 0-0.435 0.18-0.623 0.4-0.189 0.22-0.448 0.4-0.577 0.4s-0.286 0.135-0.349 0.3c-0.064 0.165-0.253 0.3-0.422 0.3-0.168 0-0.306 0.095-0.306 0.21 0 0.116-0.263 0.302-0.584 0.414s-0.633 0.333-0.694 0.49c-0.06 0.157-0.281 0.286-0.491 0.286s-0.494 0.135-0.631 0.3-0.376 0.3-0.531 0.3-0.331 0.13-0.392 0.288-0.373 0.345-0.694 0.416c-0.321 0.07-0.583 0.256-0.583 0.412 0 0.181-0.214 0.284-0.59 0.284-0.325 0-0.664 0.132-0.755 0.294-0.09 0.162-0.383 0.328-0.649 0.369-0.267 0.04-0.52 0.178-0.562 0.305-0.043 0.128-0.25 0.232-0.461 0.232-0.21 0-0.563 0.18-0.783 0.4s-0.628 0.4-0.906 0.4c-0.279 0-0.558 0.135-0.622 0.3-0.063 0.165-0.358 0.3-0.655 0.3s-0.715 0.132-0.929 0.294c-0.213 0.161-0.591 0.296-0.838 0.3-0.248 3e-3 -0.63 0.186-0.85 0.406-0.268 0.268-0.667 0.4-1.206 0.4-0.532 0-0.846 0.102-0.922 0.3-0.08 0.209-0.406 0.3-1.079 0.3-0.539 0-1.083 0.118-1.232 0.268-0.148 0.147-0.836 0.32-1.53 0.382-0.693 0.063-1.411 0.249-1.596 0.414-0.236 0.211-0.92 0.319-2.318 0.367-1.358 0.047-2.01 0.148-2.067 0.319-0.133 0.399-10.625 0.357-10.928-0.043-0.169-0.224-0.753-0.301-2.457-0.323-1.696-0.023-2.212-0.09-2.139-0.28 0.108-0.281-0.744-0.504-1.93-0.504-0.438 0-0.795-0.11-0.854-0.263-0.063-0.164-0.506-0.281-1.172-0.308-0.658-0.028-1.155-0.157-1.292-0.337-0.139-0.182-0.571-0.292-1.15-0.292-0.688 0-0.928-0.077-0.928-0.298 0-0.192-0.282-0.342-0.796-0.425-0.438-0.07-0.899-0.251-1.025-0.402-0.125-0.151-0.532-0.275-0.903-0.275-0.468 0-0.676-0.093-0.676-0.3 0-0.209-0.21-0.3-0.688-0.3-0.379 0-0.742-0.087-0.808-0.193-0.16-0.259-2.062-1.207-2.42-1.207-0.156 0-0.284-0.087-0.284-0.192 0-0.106-0.353-0.288-0.785-0.404-0.431-0.116-0.813-0.277-0.85-0.358-0.14-0.313-1.37-1.046-1.757-1.046-0.229 0-0.408-0.131-0.408-0.3 0-0.182-0.186-0.3-0.475-0.3-0.264 0-0.814-0.311-1.239-0.7-0.42-0.385-0.929-0.7-1.131-0.7s-0.419-0.135-0.483-0.3c-0.063-0.165-0.243-0.3-0.4-0.3-0.156 0-0.336-0.135-0.4-0.3-0.063-0.165-0.241-0.3-0.395-0.3-0.155 0-0.435-0.18-0.623-0.4-0.189-0.22-0.448-0.4-0.577-0.4s-0.286-0.135-0.349-0.3c-0.064-0.165-0.333-0.3-0.598-0.3-0.315 0-0.52-0.139-0.588-0.4-0.057-0.22-0.248-0.4-0.423-0.4-0.176 0-0.319-0.135-0.319-0.3s-0.135-0.3-0.3-0.3-0.3-0.135-0.3-0.3c0-0.167-0.178-0.3-0.4-0.3s-0.4-0.133-0.4-0.3c0-0.165-0.125-0.3-0.279-0.3-0.153 0-0.331-0.136-0.394-0.303-0.064-0.167-0.344-0.389-0.622-0.495s-0.505-0.274-0.505-0.374-0.18-0.228-0.4-0.286c-0.22-0.057-0.4-0.248-0.4-0.423 0-0.176-0.135-0.319-0.3-0.319s-0.3-0.09-0.3-0.2c0-0.261-0.638-0.895-1.065-1.059-0.184-0.071-0.335-0.266-0.335-0.435 0-0.168-0.135-0.306-0.3-0.306s-0.3-0.135-0.3-0.3-0.095-0.3-0.212-0.3c-0.116 0-0.156-0.091-0.087-0.201 0.068-0.111-0.016-0.256-0.188-0.322s-0.313-0.245-0.313-0.398c0-0.154-0.135-0.279-0.3-0.279s-0.3-0.125-0.3-0.279c0-0.153-0.135-0.33-0.3-0.393-0.165-0.064-0.3-0.253-0.3-0.422 0-0.168-0.135-0.306-0.3-0.306s-0.3-0.143-0.3-0.319c0-0.175-0.18-0.366-0.4-0.423-0.221-0.058-0.4-0.273-0.4-0.481 0-0.207-0.108-0.354-0.241-0.327-0.229 0.048-0.276-0.059-0.334-0.75-0.014-0.165-0.16-0.3-0.325-0.3s-0.3-0.143-0.3-0.319c0-0.175-0.18-0.366-0.4-0.423-0.261-0.068-0.4-0.273-0.4-0.588 0-0.265-0.135-0.534-0.3-0.598-0.165-0.063-0.3-0.243-0.3-0.4 0-0.156-0.129-0.334-0.286-0.394-0.157-0.061-0.378-0.373-0.49-0.694s-0.298-0.584-0.414-0.584c-0.115 0-0.21-0.18-0.21-0.4 0-0.222-0.133-0.4-0.3-0.4-0.188 0-0.3-0.19-0.3-0.506 0-0.279-0.135-0.558-0.3-0.622-0.165-0.063-0.3-0.226-0.3-0.362 0-0.137-0.18-0.411-0.4-0.61s-0.4-0.531-0.4-0.737c0-0.207-0.135-0.427-0.3-0.491-0.171-0.065-0.3-0.364-0.3-0.693 0-0.381-0.102-0.579-0.3-0.579-0.186 0-0.3-0.189-0.3-0.498 0-0.282-0.174-0.607-0.4-0.748-0.262-0.164-0.4-0.467-0.4-0.878 0-0.345-0.135-0.739-0.3-0.876s-0.3-0.511-0.3-0.831c0-0.332-0.128-0.631-0.3-0.697-0.165-0.063-0.3-0.278-0.3-0.477 0-0.576-0.22-0.995-0.521-0.995-0.2 0-0.279-0.275-0.279-0.976 0-0.623-0.108-1.065-0.3-1.224-0.182-0.151-0.3-0.589-0.3-1.11 0-0.499-0.126-0.988-0.3-1.161-0.165-0.165-0.3-0.618-0.3-1.005 0-0.754-0.356-1.724-0.632-1.724-0.092 0-0.168-0.903-0.168-2.006 0-1.599-0.061-2.03-0.3-2.122-0.446-0.171-0.448-11.743-1e-3 -12.599 0.203-0.389 0.299-1.177 0.3-2.457 1e-3 -1.44 0.076-1.967 0.319-2.235 0.183-0.203 0.366-0.885 0.432-1.612 0.062-0.694 0.235-1.382 0.382-1.53 0.158-0.158 0.268-0.712 0.268-1.353 0-0.832 0.07-1.086 0.3-1.086 0.226 0 0.3-0.242 0.3-0.979 0-0.664 0.092-1.013 0.286-1.088 0.157-0.06 0.347-0.514 0.421-1.008s0.26-0.946 0.414-1.005c0.153-0.059 0.279-0.369 0.279-0.689s0.135-0.694 0.3-0.831 0.3-0.508 0.3-0.824c0-0.317 0.18-0.756 0.4-0.976s0.4-0.583 0.4-0.806c0-0.224 0.135-0.458 0.3-0.522 0.165-0.063 0.3-0.337 0.3-0.608s0.135-0.628 0.3-0.793 0.3-0.464 0.3-0.664 0.127-0.413 0.281-0.472c0.155-0.059 0.34-0.377 0.412-0.705s0.261-0.646 0.419-0.707 0.288-0.334 0.288-0.607 0.134-0.571 0.299-0.663c0.164-0.092 0.318-0.405 0.342-0.696 0.024-0.29 0.11-0.487 0.191-0.437 0.082 0.05 0.257-0.112 0.39-0.36 0.132-0.249 0.362-0.573 0.51-0.72 0.147-0.148 0.268-0.442 0.268-0.654s0.135-0.386 0.3-0.386c0.167 0 0.3-0.178 0.3-0.4 0-0.22 0.092-0.4 0.204-0.4 0.113 0 0.315-0.247 0.45-0.55s0.494-0.794 0.796-1.093c0.303-0.299 0.55-0.595 0.55-0.659 0-0.063 0.18-0.308 0.4-0.544s0.4-0.538 0.4-0.67c0-0.133 0.135-0.293 0.3-0.356 0.165-0.064 0.3-0.253 0.3-0.422 0-0.168 0.135-0.306 0.3-0.306s0.3-0.135 0.3-0.3 0.135-0.3 0.3-0.3 0.3-0.132 0.3-0.293 0.18-0.389 0.4-0.507 0.4-0.309 0.4-0.424c0-0.116 0.268-0.495 0.594-0.843 2.03-2.161 3.445-3.531 4.36-4.224 0.575-0.435 1.046-0.863 1.046-0.95s0.135-0.159 0.3-0.159 0.3-0.135 0.3-0.3 0.115-0.3 0.256-0.3c0.14 0 0.397-0.157 0.571-0.35 0.552-0.612 1.168-1.05 1.475-1.05 0.164 0 0.298-0.135 0.298-0.3s0.131-0.3 0.29-0.3c0.16 0 0.362-0.114 0.45-0.254s0.407-0.363 0.71-0.496 0.55-0.333 0.55-0.446c0-0.112 0.138-0.204 0.306-0.204 0.169 0 0.355-0.127 0.415-0.282 0.059-0.155 0.316-0.334 0.57-0.398s0.752-0.387 1.107-0.718c0.354-0.331 0.818-0.602 1.029-0.602 0.212 0 0.437-0.135 0.501-0.3 0.063-0.165 0.229-0.3 0.369-0.3s0.366-0.135 0.503-0.3 0.417-0.3 0.623-0.3c0.205 0 0.486-0.18 0.623-0.4 0.152-0.243 0.467-0.4 0.802-0.4 0.357 0 0.552-0.106 0.552-0.3 0-0.201 0.201-0.3 0.606-0.3 0.355 0 0.654-0.125 0.722-0.3 0.063-0.165 0.329-0.3 0.592-0.3 0.262 0 0.589-0.18 0.726-0.4 0.176-0.281 0.467-0.4 0.981-0.4 0.465 0 0.772-0.109 0.845-0.3 0.069-0.178 0.369-0.3 0.741-0.3 0.344 0 0.864-0.129 1.156-0.287s0.779-0.339 1.081-0.404c0.303-0.064 0.55-0.25 0.55-0.413 0-0.228 0.271-0.296 1.179-0.296 0.863 0 1.209-0.08 1.293-0.3 0.086-0.224 0.445-0.3 1.422-0.3 1.028 0 1.306-0.064 1.306-0.3 0-0.238 0.286-0.3 1.375-0.3 1.747 0 2.625-0.176 2.625-0.525 0-0.472 14.731-0.4 15.255 0.074" fill="#f27533"/>
<path d="m91.446 45c0 0.385 0.042 0.543 0.092 0.35s0.05-0.507 0-0.7c-0.05-0.192-0.092-0.035-0.092 0.35" fill="#7f7f00"/>
</g>
</svg>
